<svg width="246" height="161" fill="none" xmlns="http://www.w3.org/2000/svg"><g clip-path="url(#clip0_197_7625)"><path d="M221 126.603c13.807 0 25-11.193 25-25s-11.193-25-25-25-25 11.193-25 25 11.193 25 25 25z" fill="#F7931A"/><path d="M232.232 98.509c.491-3.275-2.004-5.036-5.414-6.211l1.107-4.438-2.7-.671-1.079 4.32c-.709-.178-1.437-.344-2.164-.51l1.086-4.348-2.7-.673-1.106 4.436c-.587-.135-1.166-.266-1.725-.407l.003-.014-3.725-.93-.719 2.885s2.005.46 1.963.487c1.094.274 1.291.997 1.258 1.572l-1.26 5.055c.075.019.172.047.282.09l-.286-.071-1.766 7.081c-.134.331-.473.83-1.239.641.028.039-1.962-.489-1.962-.489l-1.341 3.09 3.516.877c.653.164 1.293.336 1.923.497l-1.117 4.487 2.698.672 1.106-4.437c.738.198 1.454.382 2.154.557l-1.104 4.419 2.7.672 1.118-4.478c4.606.872 8.068.52 9.526-3.645 1.175-3.354-.058-5.29-2.481-6.55 1.766-.407 3.094-1.568 3.448-3.966zm-6.171 8.653c-.833 3.355-6.482 1.541-8.313 1.086l1.484-5.945c1.832.457 7.702 1.362 6.829 4.859zm.835-8.702c-.76 3.052-5.46 1.5-6.984 1.12l1.344-5.39c1.523.38 6.434 1.088 5.64 4.27z" fill="#fff"/><g clip-path="url(#clip1_197_7625)"><path d="M191.391 73.793c18.596-3.462 30.864-21.343 27.402-39.939-3.462-18.595-21.344-30.863-39.939-27.401-18.596 3.462-30.864 21.343-27.402 39.939 3.462 18.595 21.344 30.864 39.939 27.401z" fill="#6CDE07"/><path fill-rule="evenodd" clip-rule="evenodd" d="M197.628 43.525c.856 4.596-2.306 8.341-7.729 9.826l.77 4.137-3.773.702-.778-4.177a20.91 20.91 0 01-11.007-2.233l2.067-4.319c2.832 1.462 5.406 2.28 8.304 2.174l-1.525-8.191c-6.628-.41-10.005-2.158-10.884-6.88-.84-4.511 2.27-8.29 7.615-9.718l-.452-2.423 3.774-.702.467 2.507c3.01-.222 6.026.35 8.746 1.658l-1.699 4.38c-2.165-1.024-4.28-1.539-6.396-1.576l1.478 7.938c6.889.36 10.182 2.385 11.022 6.897zm-14.614-7.136l-1.369-7.354c-2.692.718-3.85 2.447-3.508 4.285.326 1.753 1.36 2.73 4.879 3.07l-.002-.001zm9.55 8.38c-.349-1.878-1.471-2.837-5.032-3.169l1.408 7.565c2.693-.72 3.998-2.39 3.625-4.394l-.001-.002z" fill="#fff"/></g><path d="M143.778 153.579c20.864 4.099 41.101-9.493 45.199-30.357 4.098-20.864-9.493-41.1-30.358-45.199-20.864-4.098-41.1 9.493-45.198 30.358-4.099 20.864 9.493 41.1 30.357 45.198z" fill="#26A17B"/><path fill-rule="evenodd" clip-rule="evenodd" d="M155.096 119.958l.001-.005c-.263-.032-1.618-.215-4.605-.801a101.056 101.056 0 01-4.634-1.014l-.001.008c-9.101-2.207-15.639-5.152-15.263-7.064.375-1.911 7.541-2.163 16.802-.771l-1.227 6.243c.592.16 2.291.6 4.666 1.066 2.85.56 4.301.722 4.573.751l1.226-6.24c9.081 2.208 15.602 5.149 15.227 7.057-.375 1.912-7.524 2.163-16.765.77zm1.665-8.477l1.098-5.586 12.783 2.511 1.673-8.519-34.805-6.837-1.674 8.519 12.783 2.511-1.096 5.584c-10.483-1.563-18.7-1.039-19.185 1.426-.484 2.465 6.925 6.056 17.22 8.576l-3.516 17.902 9.239 1.815 3.517-17.907c10.466 1.561 18.664 1.035 19.148-1.428.484-2.462-6.906-6.05-17.185-8.567z" fill="#fff"/><g clip-path="url(#clip2_197_7625)"><path d="M54.5 150.603c30.1 0 54.5-24.401 54.5-54.5 0-30.1-24.4-54.5-54.5-54.5S0 66.003 0 96.103c0 30.099 24.4 54.5 54.5 54.5z" fill="#627EEA"/><path d="M56.198 55.228V85.44l25.537 11.411-25.537-41.624z" fill="#fff" fill-opacity=".602"/><path d="M56.196 55.228l-25.54 41.624 25.54-11.41V55.227z" fill="#fff"/><path d="M56.198 116.43v20.53l25.554-35.354-25.554 14.824z" fill="#fff" fill-opacity=".602"/><path d="M56.196 136.96v-20.533l-25.54-14.821 25.54 35.354z" fill="#fff"/><path d="M56.198 111.68l25.537-14.828-25.537-11.404v26.232z" fill="#fff" fill-opacity=".2"/><path d="M30.656 96.852l25.54 14.828V85.448l-25.54 11.404z" fill="#fff" fill-opacity=".602"/></g><g clip-path="url(#clip3_197_7625)"><path d="M122.988 73.873c8.766 1.111 16.774-5.094 17.885-13.86 1.111-8.767-5.095-16.775-13.861-17.886-8.766-1.111-16.774 5.095-17.885 13.861-1.111 8.766 5.095 16.774 13.861 17.885z" fill="#64D1FF"/><path fill-rule="evenodd" clip-rule="evenodd" d="M119.639 56.553l1.75.221 1.036-8.172 4.511.572a8.427 8.427 0 012.255.585c.665.284 1.219.658 1.661 1.121.442.464.763 1.022.965 1.671.201.65.248 1.402.14 2.257-.109.854-.352 1.578-.726 2.173a4.484 4.484 0 01-1.408 1.422 5.112 5.112 0 01-1.918.707 7.91 7.91 0 01-2.282.023l-2.49-.315-.328 2.587 3.969.503-.215 1.692-3.968-.503-.458 3.612-1.971-.25.458-3.612-1.75-.222.214-1.691 1.75.221.328-2.587-1.75-.222.227-1.793zm6.26.793c1.134.144 2.06-.012 2.777-.467.717-.457 1.146-1.231 1.285-2.324.138-1.093-.087-1.928-.673-2.506-.586-.578-1.446-.94-2.579-1.083l-2.54-.322-.808 6.38 2.538.322z" fill="#fff"/></g></g><defs><clipPath id="clip0_197_7625"><path fill="#fff" transform="translate(0 .068)" d="M0 0h246v160.932H0z"/></clipPath><clipPath id="clip1_197_7625"><path fill="#fff" transform="rotate(-10.547 141.506 -780.122)" d="M0 0h68.498v68.498H0z"/></clipPath><clipPath id="clip2_197_7625"><rect y="41.603" width="109" height="109" rx="54.5" fill="#fff"/></clipPath><clipPath id="clip3_197_7625"><path fill="#fff" transform="rotate(7.224 -262.164 900.34)" d="M0 0h32v32H0z"/></clipPath></defs></svg>