<svg width="209" height="160" fill="none" xmlns="http://www.w3.org/2000/svg"><path d="M201.902 79.34l-101.407-8.036a7.12 7.12 0 00-7.66 6.536l-5.144 64.9a7.121 7.121 0 006.536 7.661l101.406 8.036a7.12 7.12 0 007.661-6.536l5.144-64.9a7.121 7.121 0 00-6.536-7.66z" fill="#F0F7FB"/><path fill-rule="evenodd" clip-rule="evenodd" d="M142.829 114.979l.77-3.222-1.138-.117-5.448-.432 5.694-23.772a.311.311 0 01.328-.239l9.186.727c3.049.242 5.103 1.045 6.102 2.388.469.63.748 1.272.853 1.962.11.725.045 1.574-.199 2.598l-.018.074-.052.664.491.334c.416.265.74.556.98.88.401.538.635 1.201.695 1.97.063.79-.052 1.716-.339 2.752-.331 1.191-.794 2.215-1.376 3.036a6.438 6.438 0 01-1.943 1.823c-.72.431-1.559.735-2.493.898-.906.161-1.926.198-3.036.11l-.715-.056a2.173 2.173 0 00-1.438.404 2.185 2.185 0 00-.832 1.247l-.077.289-1.361 5.679-.057.207c-.016.066-.038.098-.067.118a.148.148 0 01-.097.027l-4.413-.349z" fill="#28356A"/><path fill-rule="evenodd" clip-rule="evenodd" d="M159.956 95.102c-.042.174-.087.35-.137.533-1.706 6.141-6.021 7.967-11.313 7.548l-2.695-.214a1.314 1.314 0 00-1.382 1.009l-2.663 11.123a.693.693 0 00.617.853l4.78.379a1.156 1.156 0 001.213-.882l.066-.24 1.354-5.656.083-.31a1.154 1.154 0 011.213-.884l.714.057c4.631.367 8.406-1.231 9.898-6.604.623-2.244.545-4.165-.52-5.597a4.603 4.603 0 00-1.228-1.115z" fill="#298FC2"/><path fill-rule="evenodd" clip-rule="evenodd" d="M158.729 94.495a9.38 9.38 0 00-1.158-.356 14.977 14.977 0 00-2.361-.361l-7.2-.571a1.153 1.153 0 00-1.212.884l-2.303 9.607-.066.28a1.314 1.314 0 011.382-1.009l2.695.214c5.292.419 9.607-1.408 11.313-7.548.05-.182.095-.36.137-.533a6.48 6.48 0 00-.963-.5 10.01 10.01 0 00-.264-.107z" fill="#22284F"/><path fill-rule="evenodd" clip-rule="evenodd" d="M146.798 94.091a1.15 1.15 0 011.212-.884l7.2.57c.852.068 1.644.188 2.362.364a9.38 9.38 0 011.157.355 6.598 6.598 0 011.228.607c.543-2.277.304-3.875-.826-5.395-1.246-1.673-3.666-2.538-6.83-2.79l-9.185-.727a1.319 1.319 0 00-1.386 1.01l-5.753 24.017a.793.793 0 00.706.977l5.671.449 4.444-18.553zm-31.558 25.364l-6.697-.531a.935.935 0 00-.982.715l-4.073 17.008a.56.56 0 00.501.69l3.197.253a.934.934 0 00.982-.716l1.099-4.587a.933.933 0 01.981-.716l2.12.168c4.411.35 7.127-1.589 8.128-5.779.447-1.832.276-3.313-.51-4.403-.863-1.197-2.504-1.924-4.746-2.102zm.274 6.352c-.557 2.38-2.393 2.235-4.168 2.094l-1.011-.08 1.066-4.445a.56.56 0 01.589-.428l.463.037c1.209.095 2.35.186 2.885.924.319.44.378 1.061.176 1.898zm19.434 1.331l-3.207-.255a.562.562 0 00-.589.429l-.213.888-.198-.343c-.614-1.066-2.136-1.527-3.681-1.649-3.544-.281-6.784 2.171-7.673 5.9-.456 1.86-.163 3.695.803 5.036.886 1.232 2.246 1.824 3.91 1.956 2.856.226 4.585-1.49 4.585-1.49l-.214.883a.56.56 0 00.499.691l2.889.229a.934.934 0 00.982-.715l2.606-10.871a.559.559 0 00-.499-.689zm-4.966 5.905c-.455 1.813-2.007 2.931-3.862 2.784-.931-.074-1.651-.432-2.085-1.038-.429-.601-.545-1.418-.324-2.299.434-1.799 2.013-2.956 3.84-2.811.91.072 1.627.435 2.069 1.045.443.617.573 1.44.362 2.319zm21.778-4.296l-3.223-.256a.936.936 0 00-.803.349l-4.965 6.214-1.384-6.459a.937.937 0 00-.841-.737l-3.166-.251a.562.562 0 00-.589.699l2.722 10.728-3.712 4.46a.562.562 0 00.385.92l3.219.255a.933.933 0 00.797-.34l11.948-14.667a.56.56 0 00-.388-.915z" fill="#28356A"/><path fill-rule="evenodd" clip-rule="evenodd" d="M163.007 123.241l-6.698-.531a.934.934 0 00-.981.715l-4.073 17.007a.56.56 0 00.499.69l3.437.272a.652.652 0 00.686-.501l1.156-4.82a.933.933 0 01.981-.716l2.119.168c4.413.349 7.127-1.59 8.13-5.779.447-1.833.274-3.314-.512-4.404-.862-1.197-2.502-1.924-4.744-2.101zm.275 6.351c-.557 2.381-2.393 2.235-4.169 2.095l-1.01-.08 1.067-4.445a.559.559 0 01.588-.429l.463.037c1.208.096 2.35.186 2.885.924.319.441.377 1.062.176 1.898zm19.429 1.331l-3.205-.254a.558.558 0 00-.588.428l-.213.889-.199-.344c-.615-1.066-2.135-1.526-3.68-1.649-3.544-.281-6.783 2.172-7.672 5.901-.455 1.859-.164 3.695.802 5.035.888 1.232 2.246 1.824 3.91 1.956 2.855.227 4.585-1.489 4.585-1.489l-.214.882a.561.561 0 00.501.692l2.888.229a.935.935 0 00.981-.716l2.606-10.87a.561.561 0 00-.502-.69zm-4.966 5.905c-.453 1.813-2.007 2.931-3.862 2.784-.929-.074-1.651-.432-2.085-1.038-.429-.601-.543-1.417-.324-2.299.435-1.799 2.013-2.956 3.84-2.811.91.072 1.626.435 2.069 1.045.444.618.574 1.44.362 2.319zm8.924-11.236l-4.138 17.319a.56.56 0 00.499.69l2.764.219a.93.93 0 00.981-.715l4.076-17.007a.56.56 0 00-.499-.69l-3.095-.246a.563.563 0 00-.588.43z" fill="#298FC2"/><g clip-path="url(#clip0_197_6642)"><rect x="11" y="25.462" width="123" height="51.41" rx="8" transform="rotate(-9.104 11 25.462)" fill="#F0F9F1"/><path d="M79.788 28.67l6.42-1.028.462 23.557-6.42 1.028-.462-23.556zm-8.093 1.298L69.49 43.934l-4.018-12.97-4.49.72-3.55 14.142-2.83-13.12-6.222.998 5.858 22.692 5.16-.827 4.044-15.594 4.58 14.212 5.08-.814L77.8 28.99l-6.104.978zm56.041 4.753l-15.241 2.443c.558 2.98 2.666 4.662 5.304 4.24 1.989-.32 3.394-1.635 4.29-3.86l5.52 1.516c-1.21 3.766-4.572 6.634-9.166 7.37-6.262 1.004-11.092-2.545-12.177-9.318-1.193-7.444 2.845-13.504 9.737-14.608 6.065-.972 10.541 2.511 11.564 8.891a16.2 16.2 0 01.169 3.326zm-6.417-3.496c-.429-2.678-2.197-4.131-4.6-3.746-2.402.385-4.245 2.498-4.38 5.185l8.98-1.439zm-91.89 12.637l-5.326 8.709 11.7-1.875.737-3.823-5.013.804 2.496-4.034-.005-.096-2.542-3.109 8.961-1.436-3.884 20.228 4.754-.762 4.696-24.383-21.672 3.473 5.096 6.305h.002zm67.953-13.285c2.265-.362 4.445.536 6.512 2.346l-.131-6.64c-1.79-.834-4.084-1.163-6.98-.7-5.749.922-8.439 4.807-7.754 9.08.475 2.964 2.42 4.51 5.325 5.246l1.394.383c2.587.645 3.32 1.053 3.495 2.146.175 1.093-.797 2.026-2.46 2.293-2.746.45-5.197-.602-7.256-2.736l.133 6.767c2.14 1.148 4.707 1.526 7.93 1.01 5.464-.876 8.317-4.564 7.616-8.936-.476-2.973-2.101-4.672-5.67-5.635l-1.524-.443c-2.11-.56-2.857-.936-3.011-1.9-.168-1.044.619-1.998 2.381-2.28z" fill="#00590E"/></g><rect y="125.313" width="75.307" height="34.373" rx="8" transform="rotate(-9.41 0 125.313)" fill="#930E86" fill-opacity=".07"/><path d="M54.867 126.203l4.424-1.496 2.645 17.016-4.546.707-2.523-16.227zm6.636-1.032l2.522 16.218 4.545-.707-2.643-17.007-4.424 1.496zm-10.577 18.254l4.546-.707-1.934-12.44-4.546.707 1.934 12.44zm-31.7-6.013c-.584.052-1.926.175-2.107-.991-.22-1.409 1.697-1.707 2.41-1.818 1.262-.196 2.956-.084 4.174.073 0 0 .69.124 1.274.264l.05.002-.6-3.852-.07-.009c-1.45-.255-3.119-.458-6.095.005-5.124.796-6.482 3.991-6.095 6.481.224 1.437 1.386 4.721 7.312 4.203.506-.049 1.837-.179 2.025 1.033.155.996-.832 1.755-2.652 2.038-1.994.31-3.997.112-5.245-.175l.618 3.974c1.822.179 3.842.096 6.163-.265 5.008-.779 6.824-3.881 6.399-6.615-.482-3.1-3.299-4.722-7.561-4.348zm27.177-6.207c-4.18.784-6.021 2.957-5.453 6.612l1.088 6.999 4.585-.712-.889-5.713c-.34-2.189-.197-3.174 2.458-3.673l-.567-3.646c-.476-.012-1.222.133-1.222.133zM34.1 133.29c-.058.26-.478 2.384-1.917 4.735l-1.382-8.889-4.55 1.632 2.503 16.104 4.69-.729-.773-4.98c1.667 1.781 2.806 4.664 2.806 4.664l5.615-.873c-.91-2.168-3.982-5.944-3.982-5.944 1.757-3.035 2.274-6.06 2.353-6.563l-5.364.834.001.009zm16.969-3.85c1.233-.192 2.092-1.326 1.905-2.529-.187-1.203-1.342-2.033-2.584-1.84-1.233.191-2.083 1.324-1.894 2.536.187 1.203 1.34 2.024 2.573 1.833z" fill="#930E86"/><defs><clipPath id="clip0_197_6642"><rect x="11" y="25.462" width="123" height="51.41" rx="8" transform="rotate(-9.104 11 25.462)" fill="#fff"/></clipPath></defs></svg>