<svg width="128" height="128" viewBox="0 0 128 128" fill="none" xmlns="http://www.w3.org/2000/svg">
<rect width="128" height="128" rx="15.8453" fill="#212121"/>
<path d="M40.3095 35.0034C39.8069 31.6535 38.0937 28.584 35.5954 26.2628C35.2102 25.9273 34.621 25.9273 34.2584 26.2851L25.7835 34.6494C25.421 35.0072 25.3983 35.6111 25.7609 35.9689C28.1176 38.4396 31.2343 40.1333 34.6357 40.6281C36.8799 40.9546 39.1099 41.4194 41.3212 42.0225C41.5675 42.0832 41.7907 41.863 41.7291 41.6199C41.1168 39.433 40.6429 37.2252 40.3095 35.0034Z" fill="white"/>
<path d="M36.2068 54.8238C36.0852 54.7952 35.9758 54.903 36.0033 55.0234C37.4989 61.6879 37.3176 68.5314 35.4821 75.0395C35.3235 75.5539 35.8673 76.0011 36.3658 75.7775C39.9915 74.0331 43.7757 72.6241 47.6733 71.5954C48.3531 71.4165 49.0329 71.2375 49.7354 71.081C50.1433 70.9915 50.4378 70.6561 50.4832 70.2535C50.687 68.5515 50.8078 66.8495 50.8465 65.1504C50.9005 62.783 49.6872 60.5574 47.6194 59.3564C44.0821 57.3018 40.2423 55.7741 36.2068 54.8238Z" fill="white"/>
<path d="M59.2863 47.8258C60.5026 49.8669 62.7578 51.0633 65.1565 51.0115C66.8782 50.9744 68.6045 50.8579 70.3335 50.6623C70.7414 50.6176 71.0813 50.3268 71.172 49.9243C71.2626 49.5888 71.3476 49.2477 71.4326 48.9066C71.5175 48.5656 71.6025 48.2246 71.6931 47.8891C72.7355 44.0424 74.1631 40.3076 75.9306 36.7293C76.1799 36.2596 75.7267 35.7229 75.1828 35.8571C68.5887 37.6686 61.6093 37.8475 54.9019 36.3715C54.7799 36.3444 54.6708 36.4523 54.6998 36.5723C55.6617 40.5513 57.2076 44.3375 59.2863 47.8258Z" fill="white"/>
<path d="M102.216 93.3559L93.7416 101.72C93.379 102.078 92.7898 102.078 92.4046 101.743C76.4745 86.9597 51.5029 86.9597 35.5727 101.743C35.2102 102.1 34.5984 102.078 34.2358 101.72L25.7835 93.3783C25.3983 92.9981 25.421 92.3942 25.7835 92.0364C39.7649 78.8638 59.9325 73.8542 78.6952 78.9085C78.9415 78.9693 79.1646 78.7491 79.103 78.506C73.9592 59.9659 79.0577 40.084 92.4046 26.2851C92.7898 25.905 93.379 25.905 93.7642 26.2851L102.216 34.6271C102.579 34.9849 102.579 35.5664 102.239 35.9466C87.2607 51.6687 87.2607 76.3143 102.239 92.0364C102.602 92.3942 102.579 92.9981 102.216 93.3559Z" fill="white"/>
</svg>
