<svg width="25" height="24" fill="none" xmlns="http://www.w3.org/2000/svg"><path d="M12.276 0c1.873 0 3.654.436 5.253 1.219.251.115.503.252.753.39l-1.096.985L15.543.875l-2.832 2.52-1.668-1.814-5.206 4.7 3.333 3.69-1.301 1.147 3.289 3.69-1.301 1.146 4.704 5.25 2.784-2.568 2.422 2.752c-.48.366-1.005.734-1.575 1.054A11.899 11.899 0 0112.3 24C5.7 24 .333 18.614.333 11.99.31 5.41 5.677 0 12.276 0zm-2.193 11.255l2.855-2.567 2.558 2.865-2.855 2.568-2.558-2.866zm2.033 4.952l2.831-2.59 2.58 2.865-2.854 2.568-2.557-2.843zM8.052 6.373l2.85-2.568 2.558 2.866-2.855 2.567-2.553-2.865zm5.229-1.38l2.127-1.921 1.919 2.132-2.124 1.948-1.922-2.159zm3.787 8.826l2.128-1.922 1.918 2.154-2.124 1.927-1.921-2.159zm1.873 4.333l2.124-1.926 1.917 2.133-2.123 1.948-1.918-2.154zm.868-9.903l1.416-1.284 1.278 1.422-1.415 1.283-1.279-1.42zm-1.827-4.24l1.416-1.307 1.28 1.444L19.26 5.43l-1.278-1.42zm3.63 8.482l1.416-1.284 1.305 1.424-1.438 1.284-1.282-1.424zm-6.374-3.187l2.124-1.926L19.28 9.51l-2.124 1.926-1.918-2.132z" fill="#036CB5"/></svg>