<svg width="67" height="24" viewBox="0 0 67 24" fill="none" xmlns="http://www.w3.org/2000/svg">
<path d="M52.9664 2.89211L58.4923 1.9087V23.1106H52.9664V2.89211ZM61.0327 2.89211V23.0989H66.5586V1.9087L61.0327 2.89211ZM45.1108 23.0989H50.6366V7.59846H45.1108V23.0989ZM8.59567 9.78772C7.89323 9.74089 6.27762 9.63553 6.27762 8.18382C6.27762 6.42772 8.60738 6.42772 9.47372 6.42772C11.0074 6.42772 12.9976 6.88431 14.4142 7.30577C14.4142 7.30577 15.2103 7.58675 15.8776 7.86772L15.9362 7.87943V3.07943L15.8542 3.05602C14.1801 2.47065 12.2366 1.9087 8.61909 1.9087C2.39079 1.9087 0.189819 5.53797 0.189819 8.64041C0.189819 10.4316 0.962502 14.6463 8.09226 15.138C8.70104 15.1731 10.3049 15.2667 10.3049 16.777C10.3049 18.018 8.99372 18.7555 6.78104 18.7555C4.35762 18.7555 2.01616 18.135 0.587868 17.5497V22.5019C2.7186 23.0638 5.13031 23.3448 7.95177 23.3448C14.0396 23.3448 16.7674 19.9146 16.7674 16.5077C16.7674 12.6443 13.7235 10.1389 8.59567 9.78772ZM41.9967 7.37602C36.8923 7.53992 34.3049 9.83455 34.3049 14.3887V23.1106H39.8776V15.9926C39.8776 13.2648 40.2288 12.0941 43.4718 11.9887V7.44626C42.9098 7.34089 41.9967 7.37602 41.9967 7.37602ZM27.0113 7.58675C26.8942 7.89114 26.0045 10.3965 23.862 12.9838V1.9087L18.1606 3.0326V23.0989H23.862V16.8941C25.5127 19.376 26.3323 23.0989 26.3323 23.0989H33.1576C32.4786 20.2892 29.5284 15.1146 29.5284 15.1146C32.1742 11.7546 33.3449 8.17211 33.5323 7.57504H27.0113V7.58675ZM47.862 6.11163C49.3606 6.11163 50.5898 4.89407 50.5898 3.39553C50.5898 1.89699 49.3723 0.667725 47.862 0.667725C46.3635 0.667725 45.1459 1.88529 45.1459 3.39553C45.1459 4.89407 46.3635 6.11163 47.862 6.11163Z" fill="url(#paint0_linear_27_286)"/>
<defs>
<linearGradient id="paint0_linear_27_286" x1="0.20153" y1="11.9989" x2="66.5623" y2="11.9989" gradientUnits="userSpaceOnUse">
<stop stop-color="#872166"/>
<stop offset="1" stop-color="#4F2455"/>
</linearGradient>
</defs>
</svg>
