<svg width="25" height="24" fill="none" xmlns="http://www.w3.org/2000/svg"><g clip-path="url(#clip0_197_6843)"><mask id="mask0_197_6843" style="mask-type:luminance" maskUnits="userSpaceOnUse" x="0" y="0" width="25" height="24"><path d="M12.666 24c6.628 0 12-5.373 12-12s-5.372-12-12-12c-6.627 0-12 5.373-12 12s5.373 12 12 12z" fill="#fff"/></mask><g mask="url(#mask0_197_6843)"><path d="M.667 0h24v24h-24V0z" fill="#0052B4"/><path d="M12.666 4.697l.39 1.195h1.251l-1.017.736.389 1.2-1.017-.74-1.018.74.39-1.2-1.018-.736h1.257l.393-1.195zM7.501 6.834l1.125.572.886-.89-.197 1.242 1.12.572-1.242.196-.197 1.243-.572-1.125-1.242.201.89-.89-.571-1.12zM5.363 12l1.196-.39v-1.25l.736 1.017 1.2-.39-.741 1.018.74 1.017-1.2-.39-.735 1.018v-1.256L5.363 12zm2.138 5.166l.572-1.125-.891-.886 1.242.197.572-1.12.197 1.241 1.242.197-1.125.572.202 1.242-.89-.89-1.121.572zm5.165 2.137l-.389-1.195h-1.251l1.017-.736-.39-1.2 1.018.74 1.017-.74-.389 1.2 1.017.736H13.06l-.394 1.195zm5.166-2.137l-1.125-.572-.886.89.197-1.242-1.12-.572 1.242-.197.197-1.242.572 1.125 1.242-.201-.89.89.571 1.12zM19.969 12l-1.195.389v1.252l-.736-1.018-1.2.39.74-1.018-.74-1.017 1.2.39.736-1.018v1.256L19.97 12zm-2.137-5.166L17.26 7.96l.89.886-1.241-.197-.572 1.12-.197-1.242-1.242-.196 1.125-.572-.202-1.242.89.89 1.121-.572z" fill="#FFDA44"/></g></g><defs><clipPath id="clip0_197_6843"><path fill="#fff" transform="translate(.667)" d="M0 0h24v24H0z"/></clipPath></defs></svg>