<svg width="93" height="16" fill="none" xmlns="http://www.w3.org/2000/svg"><g clip-path="url(#clip0_197_6856)"><path d="M90.934 1.216C89.754.408 87.97 0 85.628 0h-6.13l-2.28 12.372h-8.03l.516-2.807h4.838l.573-3.153-4.834.007.517-2.794h4.983L76.444 0h-10.12l-2.163 11.735h-3.713L62.626 0h-5.29l-2.163 11.736h-3.618L53.735 0H48.45l-2.282 12.372H38.08l.511-2.807h4.857l.574-3.135-4.852-.004.514-2.8h5.04L45.38 0H13.848l-1.795 9.804L8.48 0H2.991L.037 16h5.241L7.066 5.925 10.535 16h18.784l2.283-12.376h2.938L32.256 16H81.68l1.433-7.812L85.431 16h5.244l-2.402-6.384.55-.118c1.21-.26 2.154-.817 2.812-1.652.656-.843.99-1.926.99-3.226 0-1.514-.553-2.627-1.692-3.405l.001.001zM24.758 12.372h-8.023l.518-2.807h5.032l.57-3.162h-4.983l.48-2.777h8.011l-1.607 8.746h.002zm61.855-5.39c-.527.37-1.291.549-2.337.549h-1.037l.796-4.294h.762c.868 0 1.501.14 1.938.423.341.223.746.663.746 1.496 0 1.007-.472 1.548-.87 1.827h.002z" fill="#76BA0E"/></g><defs><clipPath id="clip0_197_6856"><path fill="#fff" transform="translate(.039)" d="M0 0h92.589v16H0z"/></clipPath></defs></svg>