<svg width="24" height="24" fill="none" xmlns="http://www.w3.org/2000/svg"><path fill-rule="evenodd" clip-rule="evenodd" d="M18.084 0H5.916A5.92 5.92 0 000 5.916v12.168A5.916 5.916 0 005.916 24h12.168A5.916 5.916 0 0024 18.084V5.916A5.916 5.916 0 0018.084 0zm-5.25 13.638c.012.054.06.09.114.09h2.922a.116.116 0 00.114-.09l1.548-5.868c.018-.078-.036-.15-.114-.15H6.924a.116.116 0 00-.114.15l2.49 9.714c.012.054.06.09.114.09h9.36a.12.12 0 01.12.12v1.98a.12.12 0 01-.12.12H7.686a.116.116 0 01-.114-.09L4.92 9.21a.116.116 0 00-.114-.09h-1.05c-.078 0-.132-.072-.114-.15l.828-3.486a.116.116 0 01.114-.09H20.25c.078 0 .138.072.114.15l-2.526 9.816a.116.116 0 01-.114.09h-6.6a.116.116 0 01-.114-.09L9.654 9.978c-.018-.078.036-.15.114-.15h4.836c.078 0 .138.072.114.15l-.492 1.986a.116.116 0 01-.114.09h-1.536a.116.116 0 00-.114.15l.378 1.422-.006.012z" fill="#FFB600"/></svg>