<svg width="92" height="24" fill="none" xmlns="http://www.w3.org/2000/svg"><g clip-path="url(#clip0_197_7112)"><path d="M29.685 5a.378.378 0 00-.374.32l-2.156 13.676a.352.352 0 00.199.372.35.35 0 00.146.033h2.558a.379.379 0 00.374-.32l.633-4.016a.378.378 0 01.374-.32h2.325a5.515 5.515 0 005.445-4.668c.424-2.709-1.692-5.071-4.691-5.077h-4.833zm2.486 3.053h1.86c1.532 0 2.031.904 1.873 1.903-.157 1.002-.932 1.74-2.414 1.74h-1.893l.574-3.643zm12.24.93c-.646.002-1.39.135-2.224.482-1.913.798-2.832 2.446-3.223 3.648 0 0-1.242 3.667 1.565 5.681 0 0 2.602 1.94 5.532-.12l-.05.322a.348.348 0 00.199.372.35.35 0 00.146.033h2.428a.378.378 0 00.374-.32l1.477-9.366a.35.35 0 00-.346-.405h-2.428a.378.378 0 00-.373.32l-.08.504s-1.06-1.158-2.998-1.151zm.079 2.958c.279 0 .534.039.762.112 1.048.336 1.642 1.343 1.47 2.434-.212 1.343-1.313 2.332-2.726 2.332a2.49 2.49 0 01-.763-.112c-1.047-.336-1.645-1.343-1.473-2.433.212-1.344 1.317-2.333 2.73-2.333z" fill="#fff"/><path d="M64.65 4.8a.378.378 0 00-.374.319L62.12 18.795a.349.349 0 00.345.405h2.558a.378.378 0 00.374-.32l.633-4.016a.378.378 0 01.374-.32h2.325a5.514 5.514 0 005.444-4.668c.425-2.709-1.69-5.07-4.69-5.077H64.65zm2.486 3.052h1.86c1.532 0 2.03.904 1.873 1.904-.157 1.001-.932 1.739-2.414 1.739h-1.893l.574-3.643zm12.24.93c-.647.003-1.39.135-2.224.482-1.914.798-2.833 2.447-3.223 3.648 0 0-1.242 3.667 1.565 5.681 0 0 2.602 1.94 5.532-.12l-.05.322a.35.35 0 00.346.405h2.427a.378.378 0 00.374-.32L85.6 9.515a.35.35 0 00-.346-.405h-2.428a.378.378 0 00-.373.319l-.08.504s-1.06-1.158-2.998-1.15zm.078 2.958c.28 0 .534.039.763.112 1.048.337 1.642 1.343 1.47 2.434-.212 1.343-1.314 2.332-2.727 2.332a2.49 2.49 0 01-.762-.111c-1.047-.337-1.645-1.343-1.473-2.434.212-1.343 1.317-2.333 2.73-2.333z" fill="#0070E0"/><path d="M51.788 9.31a.284.284 0 00-.27.371l2.661 8.26-2.406 3.893a.284.284 0 00.24.433h2.846a.473.473 0 00.404-.228L62.697 9.74a.284.284 0 00-.243-.43H59.61a.473.473 0 00-.407.231l-2.927 4.94-1.485-4.903a.379.379 0 00-.362-.269h-2.64z" fill="#fff"/><path d="M88.36 4.8a.379.379 0 00-.374.319l-2.157 13.676a.35.35 0 00.345.405h2.558a.379.379 0 00.374-.32l2.156-13.676a.35.35 0 00-.345-.405h-2.558z" fill="#0070E0"/><path d="M8.363 4.8a.692.692 0 00-.683.583l-1.135 7.2A.692.692 0 017.228 12h3.327a6.794 6.794 0 006.708-5.752c.038-.247.06-.496.065-.746a6.314 6.314 0 00-2.945-.702h-6.02z" fill="#fff"/><path d="M17.33 5.501c-.005.25-.027.5-.066.747A6.795 6.795 0 0110.556 12H7.23c-.34 0-.63.247-.684.584L5.503 19.2l-.654 4.15a.562.562 0 00.554.65h3.611a.693.693 0 00.683-.584l.952-6.032a.692.692 0 01.683-.584h2.126a6.794 6.794 0 006.708-5.752c.369-2.35-.814-4.487-2.836-5.547z" fill="#0070E0"/><path d="M4.262 0c-.34 0-.63.247-.683.583L.745 18.55c-.053.342.21.65.555.65h4.202l1.044-6.616 1.135-7.2a.692.692 0 01.683-.585h6.02c1.095 0 2.094.256 2.945.702C17.387 2.488 14.9 0 11.482 0h-7.22z" fill="#DEDEDE"/></g><defs><clipPath id="clip0_197_7112"><path fill="#fff" transform="translate(.736)" d="M0 0h90.528v24H0z"/></clipPath></defs></svg>