<svg width="56" height="24" fill="none" xmlns="http://www.w3.org/2000/svg"><g clip-path="url(#clip0_197_7142)"><path d="M.965 22.754v-1.93h1.43v.327h-1.04v.427h.968v.326h-.969v.525h1.078v.325H.965zm1.814-1.93h.37v.342h-.37v-.342zm0 .532h.37v1.398h-.37v-1.398zm2.039 1.398h-.37v-.713c0-.151-.008-.25-.024-.294a.206.206 0 00-.205-.14.295.295 0 00-.172.053.264.264 0 00-.105.14 1.198 1.198 0 00-.028.32v.634h-.37v-1.398h.343v.205a.56.56 0 01.461-.236.55.55 0 01.224.044.381.381 0 01.153.112.404.404 0 01.072.155c.014.058.02.141.02.25v.868zm.762-1.929v.709a.545.545 0 01.658-.162.377.377 0 01.226.284c.012.06.019.153.019.278v.82h-.37v-.738c0-.147-.007-.24-.02-.28a.184.184 0 00-.075-.094.239.239 0 00-.134-.034.307.307 0 00-.164.044.26.26 0 00-.106.135.812.812 0 00-.034.267v.7h-.37v-1.93h.37zm2.106 1.484l.368.062a.607.607 0 01-.224.309.66.66 0 01-.383.105c-.244 0-.424-.079-.54-.238a.799.799 0 01-.138-.481c0-.232.06-.414.181-.545a.597.597 0 01.46-.197.62.62 0 01.492.206c.12.138.178.348.172.631h-.926c.002.11.032.195.09.256a.28.28 0 00.212.092.226.226 0 00.146-.047.293.293 0 00.09-.153zm.021-.374c-.003-.107-.03-.188-.083-.244a.255.255 0 00-.192-.083.257.257 0 00-.2.088.342.342 0 00-.078.24h.553zm.688-1.111h.37v.342h-.37v-.342zm0 .532h.37v1.398h-.37v-1.398zm1.408 0v.295H9.55v.563c0 .114.003.18.008.2l.033.046.062.019a.48.48 0 00.149-.036l.032.287a.738.738 0 01-.293.055.459.459 0 01-.18-.034.26.26 0 01-.118-.086.346.346 0 01-.052-.144 1.821 1.821 0 01-.012-.261v-.61h-.17v-.294h.17v-.278l.371-.216v.494h.253zm.275-.532h.37v1.93h-.37v-1.93zm.768 0h.37v.342h-.37v-.342zm0 .532h.37v1.398h-.37v-1.398zm1.987.414l-.365.065a.265.265 0 00-.084-.165.253.253 0 00-.168-.055.277.277 0 00-.221.096c-.055.063-.082.17-.082.319 0 .165.027.283.083.351.056.069.13.103.224.103a.25.25 0 00.173-.06c.045-.04.076-.109.095-.206l.363.062a.644.644 0 01-.217.377.67.67 0 01-.43.128.641.641 0 01-.49-.193c-.12-.13-.182-.308-.182-.536 0-.23.061-.41.183-.539a.65.65 0 01.495-.193c.17 0 .306.037.406.11.1.074.173.185.217.335zm.667-.945v.709a.545.545 0 01.658-.162.377.377 0 01.226.284c.013.06.02.153.02.278v.82h-.37v-.738c0-.147-.007-.24-.022-.28a.184.184 0 00-.074-.094.24.24 0 00-.134-.034.307.307 0 00-.164.044.259.259 0 00-.106.135.812.812 0 00-.034.267v.7h-.37v-1.93h.37zm2.107 1.484l.368.062a.606.606 0 01-.224.309.66.66 0 01-.384.105c-.243 0-.423-.079-.54-.238a.799.799 0 01-.137-.481c0-.232.06-.414.181-.545a.597.597 0 01.46-.197.62.62 0 01.491.206c.12.138.178.348.173.631h-.927c.003.11.033.195.09.256a.28.28 0 00.213.092.226.226 0 00.146-.047.293.293 0 00.09-.153zm.02-.374a.356.356 0 00-.082-.244.255.255 0 00-.192-.083.255.255 0 00-.2.088.342.342 0 00-.078.24h.553zm1.042.819h-.37v-1.398h.343v.199a.597.597 0 01.16-.186.29.29 0 01.16-.044c.084 0 .165.023.243.07l-.115.322a.323.323 0 00-.174-.06.206.206 0 00-.131.042c-.036.028-.065.08-.085.155-.02.074-.031.23-.031.468v.432zm1.484 0v-1.93h1.43v.327h-1.04v.427h.968v.326h-.968v.525h1.078v.325h-1.468zm2.734 0v-.21a.563.563 0 01-.716.179.363.363 0 01-.162-.173.774.774 0 01-.05-.31v-.884h.37v.642c0 .197.007.317.02.361a.2.2 0 00.075.106.23.23 0 00.136.039.291.291 0 00.273-.181c.018-.052.027-.177.027-.378v-.589h.37v1.398h-.343zm1.099 0h-.37v-1.398h.344v.199a.597.597 0 01.159-.186.29.29 0 01.16-.044.47.47 0 01.243.07l-.115.322a.322.322 0 00-.173-.06.206.206 0 00-.132.042c-.036.028-.064.08-.085.155-.02.074-.03.23-.03.468v.432zm.628-.719c0-.122.03-.241.091-.357a.624.624 0 01.258-.263.767.767 0 01.371-.09.697.697 0 01.723.726.72.72 0 01-.205.526.692.692 0 01-.515.208.81.81 0 01-.366-.087.594.594 0 01-.265-.254.847.847 0 01-.091-.409zm.38.02c0 .139.032.245.098.318a.314.314 0 00.244.111.312.312 0 00.242-.11c.066-.074.099-.181.099-.322a.461.461 0 00-.099-.316.312.312 0 00-.242-.11.314.314 0 00-.244.11c-.066.074-.098.18-.098.319zm1.329-.185h.727v.37h-.727v-.37zm.794.884v-.352l1.014-1.251h-.9v-.327h1.413v.303l-1.057 1.302h1.098v.325h-1.568zm2.106-.972l-.335-.06a.522.522 0 01.195-.3c.092-.065.229-.098.41-.098.165 0 .288.02.369.059.08.04.137.089.17.149s.05.17.05.33l-.005.433c0 .122.006.213.018.271.012.059.034.12.067.188h-.366a1.297 1.297 0 01-.036-.11l-.013-.043a.588.588 0 01-.433.184.475.475 0 01-.34-.117.389.389 0 01-.124-.296c0-.079.018-.15.056-.211a.37.37 0 01.159-.142 1.21 1.21 0 01.294-.086 2.11 2.11 0 00.36-.091v-.037c0-.071-.018-.122-.053-.152-.036-.03-.102-.045-.2-.045a.263.263 0 00-.153.038.268.268 0 00-.09.136zm.495.3a2.26 2.26 0 01-.225.057.688.688 0 00-.201.064.154.154 0 00-.073.131c0 .052.02.097.058.134a.202.202 0 00.148.057c.066 0 .13-.022.19-.066a.23.23 0 00.089-.123.717.717 0 00.014-.18v-.073zm1.115-1.257v.709a.545.545 0 01.658-.162.377.377 0 01.226.284c.013.06.019.153.019.278v.82h-.37v-.738c0-.147-.007-.24-.02-.28a.184.184 0 00-.075-.094.239.239 0 00-.134-.034.31.31 0 00-.165.044.26.26 0 00-.105.135.801.801 0 00-.034.267v.7h-.37v-1.93h.37zm1.297-.001h.37v1.93h-.37v-1.93zm1.688 1.93v-.21a.564.564 0 01-.716.179.366.366 0 01-.162-.173.782.782 0 01-.05-.31v-.884h.37v.642c0 .197.006.317.02.361.013.045.038.08.074.106a.23.23 0 00.137.039.292.292 0 00.273-.181c.018-.052.027-.177.027-.378v-.589h.37v1.398h-.343zm2.016 0h-.37v-.713a1.1 1.1 0 00-.023-.294.206.206 0 00-.206-.14.297.297 0 00-.172.053.265.265 0 00-.105.14 1.2 1.2 0 00-.028.32v.634h-.37v-1.398h.344v.205a.56.56 0 01.46-.236c.082 0 .156.014.224.044a.378.378 0 01.154.112.408.408 0 01.072.155c.013.058.02.141.02.25v.868zm.36.092l.422.051c.007.05.024.083.049.101.035.027.09.04.166.04a.427.427 0 00.217-.044.176.176 0 00.074-.093.569.569 0 00.017-.17v-.204a.5.5 0 01-.419.227.515.515 0 01-.446-.239.81.81 0 01-.129-.468c0-.234.056-.413.17-.537a.547.547 0 01.42-.186c.173 0 .315.076.428.228v-.196h.345v1.254c0 .165-.013.288-.04.37a.464.464 0 01-.115.192.509.509 0 01-.197.11 1.04 1.04 0 01-.31.039c-.238 0-.406-.04-.505-.122a.381.381 0 01-.148-.309v-.044zm.33-.82c0 .148.029.257.086.326a.267.267 0 00.213.103c.09 0 .166-.036.229-.106.062-.07.093-.175.093-.314 0-.145-.03-.252-.09-.322a.284.284 0 00-.226-.106.273.273 0 00-.219.104c-.057.068-.086.174-.086.315zm1.239.329l.371-.057a.27.27 0 00.096.164.324.324 0 00.203.056.368.368 0 00.216-.052.118.118 0 00.048-.1l-.026-.069a.295.295 0 00-.124-.049c-.298-.065-.487-.125-.567-.18a.36.36 0 01-.166-.314.39.39 0 01.144-.306c.096-.082.244-.123.445-.123.19 0 .333.03.426.093a.475.475 0 01.192.276l-.349.065a.214.214 0 00-.085-.125.309.309 0 00-.178-.044.403.403 0 00-.21.041l-.041.075.036.067c.034.025.149.06.346.104.197.045.335.1.413.165a.342.342 0 01.116.275.422.422 0 01-.161.33c-.107.093-.266.138-.475.138-.19 0-.341-.038-.452-.115a.533.533 0 01-.218-.315zm2.032.399l-.563-1.398h.388l.263.713.077.239c.02-.061.033-.1.038-.12.012-.04.025-.08.04-.119l.265-.713h.38l-.554 1.398h-.334zm1.943-.445l.369.062a.607.607 0 01-.224.309.66.66 0 01-.384.105c-.243 0-.423-.079-.54-.238a.798.798 0 01-.138-.481c0-.232.06-.414.181-.545a.599.599 0 01.46-.197.62.62 0 01.492.206c.12.138.178.348.173.631H39.2c.003.11.032.195.09.256a.28.28 0 00.213.092.225.225 0 00.146-.047.293.293 0 00.09-.153zm.022-.374c-.003-.107-.03-.188-.084-.244a.253.253 0 00-.192-.083.257.257 0 00-.2.088.34.34 0 00-.077.24h.553zm1.04.819h-.37v-1.398h.344v.199a.597.597 0 01.159-.186.29.29 0 01.16-.044c.084 0 .165.023.243.07l-.114.322a.323.323 0 00-.174-.06.206.206 0 00-.132.042.292.292 0 00-.084.155c-.021.074-.031.23-.031.468v.432zm.701 0v-1.93h.37v1.024l.433-.492h.455l-.477.51.512.888h-.399l-.352-.628-.172.18v.448h-.37zm2.341-.445l.368.062a.605.605 0 01-.224.309.661.661 0 01-.384.105c-.243 0-.423-.079-.54-.238a.8.8 0 01-.138-.481c0-.232.061-.414.182-.545a.597.597 0 01.46-.197.62.62 0 01.492.206c.12.138.177.348.172.631h-.927c.003.11.033.195.09.256a.28.28 0 00.213.092.226.226 0 00.146-.047.293.293 0 00.09-.153zm.02-.374a.356.356 0 00-.082-.244.255.255 0 00-.192-.083.255.255 0 00-.2.088.342.342 0 00-.078.24h.553zm1.057-1.11v.709a.545.545 0 01.658-.162.377.377 0 01.226.284c.012.06.019.153.019.278v.82h-.37v-.738c0-.147-.007-.24-.021-.28a.184.184 0 00-.075-.094.239.239 0 00-.133-.034.31.31 0 00-.165.044.26.26 0 00-.106.135.804.804 0 00-.033.267v.7h-.37v-1.93h.37zm1.651 1.929h-.37v-1.398h.343v.199a.597.597 0 01.159-.186.29.29 0 01.16-.044c.084 0 .165.023.243.07l-.114.322a.323.323 0 00-.174-.06.206.206 0 00-.132.042c-.036.028-.064.08-.084.155-.021.074-.031.23-.031.468v.432zm.583-.399l.371-.057a.273.273 0 00.096.164.324.324 0 00.203.056.367.367 0 00.216-.052.118.118 0 00.048-.1l-.026-.069a.295.295 0 00-.124-.049c-.298-.065-.487-.125-.567-.18a.36.36 0 01-.166-.314.39.39 0 01.144-.306c.096-.082.244-.123.445-.123.19 0 .333.03.426.093a.475.475 0 01.192.276l-.349.065a.214.214 0 00-.084-.125.309.309 0 00-.179-.044.403.403 0 00-.209.041l-.042.075.037.067c.033.025.148.06.345.104.197.045.335.1.413.165a.342.342 0 01.116.275.422.422 0 01-.161.33c-.107.093-.266.138-.475.138-.19 0-.34-.038-.452-.115a.533.533 0 01-.218-.315zm2.002.399h-.37v-1.398h.344v.199a.597.597 0 01.158-.186.29.29 0 01.16-.044.47.47 0 01.244.07l-.115.322a.322.322 0 00-.173-.06.206.206 0 00-.132.042c-.036.028-.065.08-.085.155-.02.074-.031.23-.031.468v.432zm.99-.972l-.335-.06a.525.525 0 01.195-.3c.092-.065.228-.098.41-.098a.88.88 0 01.368.059c.081.04.138.089.171.149s.05.17.05.33l-.005.433c0 .122.006.213.018.271.012.059.034.12.066.188h-.365a1.297 1.297 0 01-.036-.11l-.013-.043a.588.588 0 01-.433.184.476.476 0 01-.34-.117.39.39 0 01-.124-.296.4.4 0 01.056-.211.368.368 0 01.159-.142 1.21 1.21 0 01.294-.086c.173-.033.292-.063.359-.091v-.037c0-.071-.017-.122-.053-.152-.035-.03-.1-.045-.198-.045a.263.263 0 00-.154.038.27.27 0 00-.09.136zm.495.3a2.249 2.249 0 01-.225.057.69.69 0 00-.201.064.155.155 0 00-.073.131c0 .052.02.097.058.134a.202.202 0 00.148.057.32.32 0 00.19-.066.233.233 0 00.089-.123.738.738 0 00.014-.18v-.073zm1.666.672v-.21a.562.562 0 01-.716.179.363.363 0 01-.161-.173.773.773 0 01-.05-.31v-.884h.37v.642c0 .197.006.317.02.361a.2.2 0 00.074.106.23.23 0 00.137.039.291.291 0 00.273-.181c.018-.052.027-.177.027-.378v-.589h.37v1.398h-.343zm.718-1.398h.34v.19a.55.55 0 01.437-.222.425.425 0 01.395.223.649.649 0 01.198-.167.488.488 0 01.228-.056.5.5 0 01.26.063.383.383 0 01.16.184.8.8 0 01.038.29v.893h-.37v-.799c0-.139-.013-.228-.038-.269-.034-.052-.087-.079-.158-.079a.261.261 0 00-.245.186c-.02.061-.03.158-.03.29v.67h-.37v-.765c0-.136-.006-.224-.02-.264a.168.168 0 00-.06-.088.196.196 0 00-.114-.029.267.267 0 00-.153.047.252.252 0 00-.098.133.984.984 0 00-.03.288v.679h-.37v-1.398zM.918 18.433l.556-.054c.033.187.101.323.203.411a.616.616 0 00.414.132c.184 0 .323-.04.416-.117a.348.348 0 00.14-.273.26.26 0 00-.058-.172.478.478 0 00-.206-.122 6.824 6.824 0 00-.458-.123c-.306-.076-.52-.17-.644-.28a.736.736 0 01-.26-.57c0-.144.04-.279.122-.404a.764.764 0 01.353-.287 1.43 1.43 0 01.557-.098c.355 0 .622.078.802.234a.82.82 0 01.283.623l-.572.025c-.024-.146-.076-.25-.157-.314-.08-.063-.201-.095-.362-.095a.65.65 0 00-.39.102.205.205 0 00-.09.176.22.22 0 00.084.172c.072.06.248.123.525.189.278.065.484.133.617.203s.237.166.313.288a.845.845 0 01.113.45.835.835 0 01-.518.772c-.164.069-.37.103-.615.103-.358 0-.633-.083-.825-.248-.191-.165-.306-.406-.343-.723zm2.896-1.909h.543v.502h-.543v-.502zm0 .78h.543v2.05h-.543v-2.05zm3.082 2.05h-.543v-1.046c0-.222-.011-.365-.035-.43a.3.3 0 00-.3-.205.436.436 0 00-.254.077.387.387 0 00-.153.205c-.028.085-.042.241-.042.47v.929h-.542v-2.05h.504v.301a.82.82 0 01.676-.347c.12 0 .228.021.327.064.1.044.175.099.225.165a.621.621 0 01.107.228c.02.085.03.207.03.365v1.274zm.618.136l.62.075c.01.072.034.12.071.148.052.039.133.058.244.058a.634.634 0 00.318-.064.262.262 0 00.108-.137.83.83 0 00.025-.249v-.3c-.162.222-.367.333-.614.333a.756.756 0 01-.654-.35 1.186 1.186 0 01-.19-.687c0-.343.083-.606.249-.787a.8.8 0 01.617-.272c.253 0 .462.11.627.334v-.288h.508v1.84c0 .241-.02.422-.06.542a.674.674 0 01-.168.282.75.75 0 01-.289.16c-.12.038-.273.058-.456.058-.348 0-.594-.06-.74-.179a.56.56 0 01-.218-.452l.002-.066zM8 18.286c0 .217.042.376.126.478a.39.39 0 00.312.15.432.432 0 00.336-.154c.091-.104.137-.257.137-.46 0-.213-.044-.37-.131-.474a.418.418 0 00-.333-.154.4.4 0 00-.32.151c-.085.101-.127.255-.127.463zm2.097-1.762h.543v2.83h-.543v-2.83zm2.404 2.177l.541.091a.887.887 0 01-.33.453.965.965 0 01-.562.155c-.356 0-.62-.116-.791-.35-.135-.186-.203-.421-.203-.706 0-.34.089-.606.266-.798a.877.877 0 01.674-.288c.305 0 .546.1.722.302.176.201.26.51.253.925h-1.36a.55.55 0 00.132.376.41.41 0 00.313.134.333.333 0 00.214-.07.43.43 0 00.131-.224zm.032-.548c-.004-.157-.045-.276-.122-.358a.374.374 0 00-.282-.122.378.378 0 00-.294.129.5.5 0 00-.114.351h.812zm2.319 1.201v-2.83h2.098v.479h-1.526v.627h1.42v.477h-1.42v.77h1.58v.477h-2.152zm4.101 0v-.307a.825.825 0 01-1.05.262.534.534 0 01-.238-.254 1.134 1.134 0 01-.073-.454v-1.297h.542v.942c0 .288.01.465.03.53.02.065.056.116.11.154.052.038.12.057.2.057a.428.428 0 00.4-.265c.027-.076.04-.26.04-.553v-.865h.543v2.05h-.504zm1.703 0h-.542v-2.05h.504v.292c.086-.138.163-.229.232-.273a.428.428 0 01.234-.065.69.69 0 01.358.102l-.168.473a.478.478 0 00-.255-.089.3.3 0 00-.193.063c-.053.042-.095.118-.124.227-.03.11-.046.338-.046.687v.633zm1.013-1.054c0-.18.044-.354.133-.523a.91.91 0 01.377-.386c.163-.089.345-.133.545-.133a1.022 1.022 0 011.06 1.065c0 .31-.1.567-.3.771-.2.204-.452.306-.756.306-.188 0-.367-.042-.537-.127a.874.874 0 01-.39-.373 1.245 1.245 0 01-.132-.6zm.555.029c0 .203.049.359.145.467a.46.46 0 00.357.162c.142 0 .26-.054.356-.162.096-.108.144-.265.144-.47 0-.201-.048-.356-.144-.464a.458.458 0 00-.356-.162.46.46 0 00-.357.162c-.096.108-.145.264-.145.467zm3.324 1.025v-2.83h.917c.347 0 .574.014.68.043a.743.743 0 01.406.277c.11.142.164.325.164.55 0 .174-.031.32-.094.439a.78.78 0 01-.24.279.83.83 0 01-.297.134c-.136.027-.334.04-.592.04h-.373v1.068h-.571zm.571-2.351v.803h.313c.225 0 .376-.015.452-.045a.376.376 0 00.243-.358.367.367 0 00-.09-.255.395.395 0 00-.23-.126 2.764 2.764 0 00-.412-.02h-.276zm2.585.927l-.491-.09a.765.765 0 01.285-.44c.135-.095.336-.142.602-.142.242 0 .422.028.54.086a.53.53 0 01.25.218c.049.088.073.25.073.485l-.006.633c0 .18.009.313.026.399.018.085.05.177.098.275h-.537a1.953 1.953 0 01-.071-.224.988.988 0 01-.297.203.849.849 0 01-.338.067c-.212 0-.378-.057-.5-.171a.57.57 0 01-.181-.435c0-.116.027-.219.082-.31a.541.541 0 01.233-.208c.1-.048.243-.09.431-.127.254-.047.43-.091.527-.133v-.054c0-.104-.025-.178-.077-.223-.052-.044-.149-.066-.291-.066a.388.388 0 00-.226.057.396.396 0 00-.132.2zm.726.44c-.07.023-.179.05-.33.083a.986.986 0 00-.295.094.226.226 0 00-.106.191c0 .076.028.142.085.197a.295.295 0 00.216.083.47.47 0 00.28-.096.343.343 0 00.13-.18c.013-.046.02-.134.02-.264v-.108zm.93-1.066h.577l.49 1.456.479-1.456h.562l-.724 1.973-.13.357a1.48 1.48 0 01-.136.274.597.597 0 01-.148.153.653.653 0 01-.207.092 1.075 1.075 0 01-.277.033c-.104 0-.206-.011-.307-.033l-.048-.425c.085.017.161.025.23.025.126 0 .219-.037.28-.11a.773.773 0 00.139-.283l-.78-2.056zm2.533 0h.5v.28c.179-.218.392-.326.639-.326a.69.69 0 01.341.08.627.627 0 01.238.246.95.95 0 01.291-.245.714.714 0 01.334-.081c.15 0 .278.03.382.091a.563.563 0 01.234.27c.037.087.056.229.056.424v1.311h-.543v-1.172c0-.203-.018-.334-.055-.393-.05-.078-.128-.116-.232-.116a.368.368 0 00-.215.07.385.385 0 00-.144.203c-.03.09-.044.23-.044.424v.984h-.543v-1.123c0-.2-.01-.329-.029-.387a.245.245 0 00-.09-.129.285.285 0 00-.165-.042.394.394 0 00-.226.067.37.37 0 00-.143.195c-.03.085-.044.226-.044.423v.996h-.542v-2.05zm4.861 1.397l.54.091a.887.887 0 01-.329.453.966.966 0 01-.562.155c-.357 0-.62-.116-.792-.35-.135-.186-.203-.421-.203-.706 0-.34.09-.606.267-.798a.878.878 0 01.674-.288c.305 0 .545.1.722.302.176.201.26.51.252.925h-1.358a.55.55 0 00.13.376c.085.09.189.134.313.134a.333.333 0 00.215-.07.43.43 0 00.131-.224zm.031-.548c-.004-.157-.044-.276-.122-.358a.374.374 0 00-.282-.122.378.378 0 00-.293.129.5.5 0 00-.114.351h.811zm2.964 1.201h-.543v-1.046c0-.222-.011-.365-.035-.43a.302.302 0 00-.112-.151.323.323 0 00-.189-.054.436.436 0 00-.253.077.388.388 0 00-.153.205c-.027.085-.042.241-.042.47v.929h-.542v-2.05h.504v.301a.82.82 0 01.676-.347c.12 0 .228.021.328.064a.565.565 0 01.224.165.6.6 0 01.107.228c.02.085.03.207.03.365v1.274zm1.608-2.05v.432h-.37v.826c0 .168.003.265.01.293l.049.069a.152.152 0 00.091.026c.05 0 .123-.017.218-.052l.046.421a1.079 1.079 0 01-.428.081.685.685 0 01-.264-.049.388.388 0 01-.173-.127.503.503 0 01-.076-.212 2.615 2.615 0 01-.018-.382v-.894h-.249v-.432h.25v-.407l.544-.317v.724h.37zm.304 1.466l.545-.084c.022.106.07.186.14.24.071.055.17.083.298.083.14 0 .245-.026.316-.078a.173.173 0 00.072-.145.142.142 0 00-.04-.102.431.431 0 00-.18-.071c-.438-.097-.715-.185-.832-.265a.528.528 0 01-.244-.461c0-.178.07-.327.21-.448.14-.12.358-.181.653-.181.28 0 .49.045.626.137.136.091.23.226.281.405l-.511.095a.316.316 0 00-.125-.184.455.455 0 00-.261-.063c-.143 0-.245.02-.307.06a.128.128 0 00-.062.11c0 .038.018.071.054.098.05.036.218.087.507.152.288.066.49.146.605.242a.5.5 0 01.17.403.62.62 0 01-.235.485c-.158.134-.39.202-.697.202-.28 0-.5-.056-.663-.17a.782.782 0 01-.32-.46zm6.134.584h-.622l-.247-.643h-1.13l-.234.643h-.606l1.102-2.83h.604l1.133 2.83zm-1.052-1.12l-.39-1.05-.382 1.05h.772zm1.989 1.12h-.542v-2.05h.504v.292c.086-.138.163-.229.232-.273a.428.428 0 01.234-.065.69.69 0 01.358.102l-.168.473a.479.479 0 00-.255-.089.3.3 0 00-.193.063c-.053.042-.095.118-.125.227-.03.11-.045.338-.045.687v.633zm2.325-.653l.54.091a.887.887 0 01-.328.453.967.967 0 01-.563.155c-.357 0-.62-.116-.792-.35-.135-.186-.203-.421-.203-.706 0-.34.09-.606.267-.798a.877.877 0 01.673-.288c.305 0 .546.1.723.302.176.201.26.51.252.925h-1.358a.55.55 0 00.13.376.41.41 0 00.313.134.333.333 0 00.215-.07.43.43 0 00.131-.224zm.031-.548c-.004-.157-.044-.276-.122-.358a.373.373 0 00-.282-.122.378.378 0 00-.293.129.501.501 0 00-.114.351h.811zm1.504-.223l-.492-.09a.765.765 0 01.286-.44c.135-.095.335-.142.602-.142.242 0 .422.028.54.086.119.057.202.13.25.218.049.088.072.25.072.485l-.005.633c0 .18.009.313.026.399.017.085.05.177.098.275h-.537a1.827 1.827 0 01-.052-.16 1.118 1.118 0 00-.02-.064.986.986 0 01-.297.203.85.85 0 01-.338.067c-.21 0-.377-.057-.499-.171a.571.571 0 01-.182-.435c0-.116.028-.219.083-.31a.544.544 0 01.233-.208c.1-.048.243-.09.43-.127.254-.047.43-.091.528-.133v-.054c0-.104-.026-.178-.078-.223-.051-.044-.148-.066-.29-.066a.39.39 0 00-.227.057.395.395 0 00-.131.2zm.726.44c-.07.023-.18.05-.33.083a.986.986 0 00-.295.094.226.226 0 00-.107.191c0 .076.029.142.085.197a.295.295 0 00.217.083.47.47 0 00.28-.096.341.341 0 00.129-.18c.014-.046.02-.134.02-.264v-.108zM12.943 5.404H9.234c0-.609-.071-1.017-.214-1.225-.22-.308-.83-.462-1.826-.462-.969 0-1.61.089-1.923.266-.314.178-.47.565-.47 1.16 0 .54.138.895.417 1.065.199.121.462.192.79.213l.748.053c1.603.106 2.604.181 3.003.224 1.268.127 2.187.465 2.757 1.01.448.427.716.984.801 1.672.05.411.075.877.075 1.394 0 1.193-.114 2.066-.341 2.62-.413 1.014-1.34 1.656-2.784 1.925-.605.114-1.53.171-2.774.171-2.077 0-3.524-.123-4.341-.372-1.003-.304-1.665-.921-1.984-1.85C.989 12.753.9 11.892.9 10.686h3.71v.309c0 .643.186 1.056.555 1.24.255.127.564.194.927.202h1.363c.696 0 1.14-.036 1.331-.107.341-.134.565-.35.672-.649.057-.184.085-.421.085-.713 0-.652-.238-1.048-.713-1.19-.178-.057-1.005-.135-2.48-.234-1.186-.085-2.01-.166-2.47-.245-1.215-.227-2.024-.695-2.427-1.404C1.097 7.293.92 6.382.92 5.162c0-.929.096-1.673.288-2.233.192-.56.5-.986.928-1.277C2.76 1.205 3.56.943 4.533.864c.81-.07 1.71-.106 2.698-.106 1.556 0 2.666.09 3.327.266 1.614.434 2.42 1.649 2.42 3.644 0 .164-.011.409-.035.736zM29.25 15.49V.68h7.426c1.019 0 1.796.082 2.33.248 1.222.383 2.041 1.167 2.461 2.35.217.623.325 1.558.325 2.808 0 1.502-.12 2.582-.358 3.24-.476 1.299-1.457 2.048-2.937 2.242-.175.03-.915.055-2.223.076l-.662.022h-2.376v3.824H29.25zm3.986-7.26h2.485c.788-.028 1.267-.089 1.44-.184.235-.129.393-.388.472-.777.05-.26.075-.644.075-1.155 0-.627-.05-1.091-.15-1.395-.143-.425-.487-.683-1.03-.777a8.097 8.097 0 00-.774-.022h-2.518v4.31zm17.064 4.7h-5.329l-.716 2.56h-4.124L44.581.68h6.013L55.1 15.49h-4.04l-.76-2.56zm-.79-2.885l-1.868-6.42-1.813 6.42h3.68z" fill="#fff"/><path d="M23.748 2.763a5.24 5.24 0 014.076 1.943l.86-1.842a7.532 7.532 0 00-5.19-2.053c-3.142 0-5.828 1.897-6.931 4.582h-1.676l-.99 2.121h2.156a7.161 7.161 0 00.01 1.315H14.98l-.989 2.122h2.623c1.134 2.617 3.788 4.455 6.88 4.455a7.553 7.553 0 004.2-1.265v-2.6a5.238 5.238 0 01-3.946 1.791 5.25 5.25 0 01-4.395-2.381h5.493l.99-2.122h-7.29a5.348 5.348 0 01-.032-1.315h7.935l.989-2.12H19.2a5.253 5.253 0 014.548-2.631z" fill="#FFBE00"/><path d="M23.748 2.826c1.567 0 3.034.7 4.026 1.92l.065.08.043-.092.859-1.843.019-.042-.033-.031a7.586 7.586 0 00-5.234-2.07 7.603 7.603 0 00-4.265 1.295 7.39 7.39 0 00-2.724 3.326l.059-.04h-1.716l-.018.037-.989 2.122-.042.09h2.255l-.063-.069A7.166 7.166 0 0016 8.836l.063-.07H14.94l-.017.037-.99 2.121-.042.09h2.723l-.058-.038c1.182 2.73 3.906 4.493 6.937 4.493a7.61 7.61 0 004.236-1.274l.028-.019v-2.804l-.11.127a5.183 5.183 0 01-8.24-.583l-.054.099h5.534l.017-.037.99-2.122.042-.09h-7.39l.062.054a5.34 5.34 0 01-.03-1.3l-.064.058h7.975l.018-.037.989-2.12.042-.091H19.2l.055.095a5.213 5.213 0 014.493-2.599zM19.2 5.457h8.238l-.058-.09-.989 2.122.058-.037h-7.992l-.007.057a5.54 5.54 0 00.032 1.331l.009.054h7.344l-.057-.09-.989 2.121.057-.037h-5.611l.065.098a5.306 5.306 0 008.442.598l-.112-.042v2.6l.029-.052a7.487 7.487 0 01-4.166 1.253c-2.981 0-5.658-1.734-6.82-4.417l-.017-.038H13.99l.058.091.989-2.122-.058.037h1.153l-.006-.07a7.213 7.213 0 01-.037-.714c0-.18.009-.373.027-.59l.005-.068h-2.223l.057.09.99-2.12-.058.036h1.719l.015-.04a7.27 7.27 0 012.679-3.27A7.48 7.48 0 0123.493.875c1.93 0 3.758.723 5.147 2.035l-.015-.073-.858 1.843.107-.014A5.3 5.3 0 0023.748 2.7a5.342 5.342 0 00-4.603 2.662l-.056.096h.111z" fill="#fff"/></g><defs><clipPath id="clip0_197_7142"><path fill="#fff" transform="translate(.222)" d="M0 0h55.556v24H0z"/></clipPath></defs></svg>