<svg width="33" height="20" fill="none" xmlns="http://www.w3.org/2000/svg"><rect x=".151" y="-.001" width="32" height="20" rx="10" fill="url(#paint0_radial_197_7397)" fill-opacity=".8"/><path opacity=".6" d="M7.053 11.404c.025-.102.17-.102.195 0l.265 1.106a1 1 0 00.705.73l.586.163c.097.027.097.165 0 .193l-.586.162a1 1 0 00-.705.73l-.265 1.106c-.025.102-.17.102-.195 0l-.265-1.105a1 1 0 00-.705-.73l-.586-.163c-.097-.027-.097-.166 0-.193l.586-.163a1 1 0 00.705-.73l.265-1.106zm-3.5-4.971c.023-.104.172-.104.195 0l.149.66a1 1 0 00.691.74l.239.07c.096.029.096.164 0 .192l-.239.07a1 1 0 00-.691.74l-.149.66c-.023.105-.172.105-.195 0l-.149-.66a1 1 0 00-.691-.74l-.239-.07c-.095-.028-.095-.163 0-.192l.239-.07a1 1 0 00.691-.74l.15-.66z" fill="#fff" fill-opacity=".42"/><path d="M10.553 6.433c.023-.104.172-.104.195 0l.149.66a1 1 0 00.691.74l.239.07a.1.1 0 010 .192l-.239.07a1 1 0 00-.691.74l-.149.66c-.023.105-.171.105-.195 0l-.149-.66a1 1 0 00-.691-.74l-.239-.07c-.095-.028-.095-.163 0-.192l.239-.07a1 1 0 00.692-.74l.148-.66z" fill="#fff" fill-opacity=".42"/><defs><radialGradient id="paint0_radial_197_7397" cx="0" cy="0" r="1" gradientUnits="userSpaceOnUse" gradientTransform="matrix(0 -30.5 48.8 0 16.15 30.5)"><stop stop-color="#39F"/><stop offset=".15" stop-color="#3D6DFA"/><stop offset="1" stop-color="#444BF6"/></radialGradient></defs></svg>