<svg width="25" height="24" viewBox="0 0 25 24" fill="none" xmlns="http://www.w3.org/2000/svg">
<path d="M12.2764 0C14.1488 0 15.9304 0.43563 17.529 1.21854C17.7803 1.33354 18.0315 1.47101 18.282 1.60848L17.1859 2.59436L15.5427 0.875067L12.7114 3.39593L11.0434 1.58144L5.83656 6.28122L9.1703 9.97188L7.86905 11.1181L11.1578 14.8087L9.85654 15.9542L14.5609 21.2038L17.3453 18.6361L19.767 21.3877C19.287 21.7544 18.762 22.1219 18.192 22.4425C16.3918 23.4656 14.363 24.0019 12.3 24C5.69968 24 0.333449 18.6144 0.333449 11.9897C0.310199 5.40996 5.67718 0 12.2764 0ZM10.0834 11.2555L12.9379 8.68784L15.4962 11.5533L12.6409 14.1206L10.0834 11.2555ZM12.1159 16.207L14.9472 13.6169L17.5279 16.482L14.673 19.0497L12.1159 16.207ZM8.05242 6.37299L10.9024 3.80529L13.4599 6.67077L10.605 9.23809L8.05242 6.37299ZM13.281 4.99337L15.4084 3.07187L17.3269 5.20433L15.2029 7.15248L13.281 4.99337ZM17.0685 13.8191L19.1959 11.8972L21.1144 14.0513L18.9904 15.9782L17.0685 13.8191ZM18.9409 18.1525L21.0649 16.2264L22.9819 18.3589L20.8586 20.307L18.9409 18.1525ZM19.809 8.24917L21.2246 6.96512L22.5034 8.38701L21.0881 9.67029L19.809 8.24917ZM17.982 4.00825L19.3976 2.70212L20.6771 4.1461L19.2604 5.42938L17.982 4.00825ZM21.6128 12.4905L23.0284 11.2072L24.3334 12.6314L22.8953 13.9146L21.6128 12.4905ZM15.2378 9.30397L17.3618 7.37829L19.2795 9.50998L17.1563 11.436L15.2378 9.30397Z" fill="#036CB5"/>
</svg>
