<svg width="92" height="24" viewBox="0 0 92 24" fill="none" xmlns="http://www.w3.org/2000/svg">
<path d="M29.6849 4.79932C29.4986 4.79932 29.3404 4.93457 29.3112 5.11875L27.1546 18.7954C27.1468 18.8454 27.1499 18.8964 27.1636 18.9451C27.1774 18.9938 27.2016 19.0388 27.2344 19.0773C27.2673 19.1157 27.3081 19.1466 27.354 19.1677C27.4 19.1889 27.4499 19.1998 27.5005 19.1998H30.0581C30.2441 19.1998 30.4026 19.0643 30.4318 18.8804L31.0653 14.8642C31.0942 14.6803 31.2527 14.5447 31.439 14.5447H33.7643C36.4812 14.5447 38.7875 12.5624 39.2088 9.87624C39.6335 7.16737 37.5172 4.8052 34.5178 4.79932H29.6849ZM32.1711 7.85248H34.0316C35.5632 7.85248 36.062 8.75624 35.9043 9.75569C35.7466 10.7573 34.972 11.495 33.4903 11.495H31.5967L32.1711 7.85248ZM44.4105 8.78216C43.7647 8.78457 43.0216 8.91689 42.1873 9.26438C40.2737 10.062 39.3547 11.7105 38.9644 12.9123C38.9644 12.9123 37.7223 16.5789 40.5287 18.5933C40.5287 18.5933 43.1315 20.5326 46.0614 18.4738L46.0109 18.7954C46.003 18.8453 46.0061 18.8963 46.0199 18.945C46.0336 18.9936 46.0577 19.0387 46.0905 19.0771C46.1233 19.1155 46.1641 19.1464 46.2099 19.1676C46.2558 19.1887 46.3057 19.1998 46.3562 19.1998H48.7842C48.9705 19.1998 49.1287 19.0643 49.1578 18.8804L50.6347 9.51458C50.6426 9.46463 50.6396 9.41355 50.6259 9.36487C50.6122 9.31618 50.5881 9.27105 50.5553 9.23256C50.5225 9.19408 50.4817 9.16316 50.4358 9.14194C50.3899 9.12071 50.3399 9.10968 50.2894 9.10961H47.8614C47.6751 9.10961 47.5166 9.24514 47.4877 9.42904L47.4083 9.93318C47.4083 9.93318 46.3482 8.77495 44.4105 8.78216ZM44.4899 11.7404C44.7687 11.7404 45.0237 11.7789 45.2525 11.8524C46.3001 12.1887 46.894 13.1951 46.7222 14.286C46.5102 15.6292 45.4086 16.6182 43.9959 16.6182C43.7174 16.6182 43.4624 16.58 43.2333 16.5065C42.186 16.1702 41.5883 15.1638 41.7602 14.0729C41.9722 12.7297 43.0772 11.7404 44.4899 11.7404Z" fill="#003087"/>
<path d="M64.6498 4.79932C64.4635 4.79932 64.3052 4.93457 64.2761 5.11875L62.1195 18.7954C62.1116 18.8454 62.1147 18.8964 62.1285 18.9451C62.1423 18.9938 62.1664 19.0388 62.1993 19.0773C62.2322 19.1157 62.273 19.1466 62.3189 19.1677C62.3648 19.1889 62.4148 19.1998 62.4654 19.1998H65.0229C65.209 19.1998 65.3675 19.0643 65.3966 18.8804L66.0301 14.8642C66.059 14.6803 66.2175 14.5447 66.4038 14.5447H68.7291C71.446 14.5447 73.7521 12.5624 74.1731 9.87624C74.5981 7.16737 72.4821 4.8052 69.4827 4.79932H64.6498ZM67.136 7.85248H68.9964C70.5281 7.85248 71.0269 8.75624 70.8692 9.75569C70.7115 10.7573 69.9371 11.495 68.4551 11.495H66.5616L67.136 7.85248ZM79.3751 8.78216C78.7293 8.78457 77.9862 8.91689 77.1519 9.26438C75.2383 10.062 74.3193 11.7105 73.929 12.9123C73.929 12.9123 72.6874 16.5789 75.4938 18.5933C75.4938 18.5933 78.096 20.5326 81.0262 18.4738L80.9757 18.7954C80.9679 18.8454 80.9709 18.8964 80.9847 18.9451C80.9985 18.9938 81.0227 19.0388 81.0555 19.0773C81.0884 19.1157 81.1292 19.1466 81.1751 19.1677C81.2211 19.1889 81.271 19.1998 81.3216 19.1998H83.7493C83.9356 19.1998 84.0938 19.0643 84.123 18.8804L85.6004 9.51458C85.6083 9.46458 85.6053 9.41346 85.5915 9.36474C85.5778 9.31601 85.5537 9.27085 85.5208 9.23236C85.4879 9.19387 85.4471 9.16296 85.4011 9.14177C85.3551 9.12058 85.3051 9.10961 85.2545 9.10961H82.8265C82.6402 9.10961 82.4817 9.24514 82.4528 9.42904L82.3734 9.93318C82.3734 9.93318 81.3128 8.77495 79.3751 8.78216ZM79.4545 11.7404C79.7333 11.7404 79.9883 11.7789 80.2171 11.8524C81.2647 12.1887 81.8586 13.1951 81.6867 14.286C81.4748 15.6292 80.3732 16.6182 78.9605 16.6182C78.682 16.6182 78.427 16.58 78.1979 16.5065C77.1506 16.1702 76.5529 15.1638 76.7248 14.0729C76.9367 12.7297 78.0418 11.7404 79.4545 11.7404Z" fill="#0070E0"/>
<path d="M51.7882 9.10964C51.5957 9.10964 51.4589 9.29756 51.5177 9.48066L54.1795 17.7407L51.7727 21.6332C51.6559 21.8221 51.7917 22.0662 52.0138 22.0662H54.8585C54.9398 22.0661 55.0198 22.0451 55.0906 22.0051C55.1615 21.9651 55.2208 21.9075 55.2629 21.8379L62.6969 9.54C62.8111 9.35102 62.6747 9.10938 62.4539 9.10938H59.6096C59.5274 9.10945 59.4467 9.1309 59.3754 9.17163C59.304 9.21236 59.2445 9.27096 59.2027 9.34166L56.2765 14.282L54.7911 9.37828C54.7427 9.2187 54.5954 9.10938 54.4289 9.10938L51.7882 9.10964Z" fill="#003087"/>
<path d="M88.3594 4.79932C88.1733 4.79932 88.0148 4.93484 87.9857 5.11875L85.8285 18.7949C85.8206 18.8449 85.8236 18.896 85.8374 18.9447C85.8511 18.9934 85.8753 19.0386 85.9081 19.0771C85.941 19.1156 85.9818 19.1465 86.0278 19.1677C86.0738 19.1889 86.1238 19.1999 86.1744 19.1998H88.732C88.918 19.1998 89.0766 19.0643 89.1057 18.8804L91.2623 5.20375C91.2701 5.15383 91.2671 5.10282 91.2533 5.0542C91.2396 5.00558 91.2155 4.96051 91.1827 4.92209C91.1499 4.88367 91.1091 4.8528 91.0633 4.83161C91.0174 4.81042 90.9675 4.7994 90.917 4.79932H88.3594Z" fill="#0070E0"/>
<path d="M8.36339 4.79932C8.19864 4.79945 8.03934 4.85834 7.91411 4.96539C7.78888 5.07245 7.70592 5.22065 7.68015 5.38338L6.54492 12.5835C6.59785 12.2472 6.8876 11.9994 7.22815 11.9994H10.5548C13.9028 11.9994 16.7437 9.55708 17.2628 6.24731C17.3014 6.00021 17.3233 5.75078 17.3283 5.50073C16.4775 5.05459 15.478 4.79932 14.3828 4.79932H8.36339Z" fill="#001C64"/>
<path d="M17.3298 5.50098C17.3248 5.75103 17.3029 6.00046 17.2643 6.24756C16.7452 9.55733 13.904 11.9997 10.5563 11.9997H7.22966C6.88938 11.9997 6.59936 12.2472 6.54643 12.5838L5.5026 19.2001L4.84877 23.3508C4.83601 23.431 4.84079 23.513 4.8628 23.5912C4.88481 23.6693 4.92353 23.7418 4.97626 23.8035C5.02899 23.8653 5.09449 23.9149 5.16824 23.9489C5.24199 23.9828 5.32223 24.0004 5.40344 24.0004H9.01419C9.17895 24.0002 9.33824 23.9413 9.46348 23.8343C9.58871 23.7272 9.67165 23.579 9.69742 23.4163L10.6485 17.384C10.6743 17.2212 10.7573 17.0729 10.8826 16.9659C11.008 16.8588 11.1674 16.8 11.3323 16.8H13.4581C16.8061 16.8 19.6471 14.3576 20.1662 11.0478C20.5348 8.69875 19.3517 6.56111 17.3298 5.50098Z" fill="#0070E0"/>
<path d="M4.26192 -0.000244141C3.92164 -0.000244141 3.63163 0.247281 3.5787 0.583283L0.745255 18.5505C0.691526 18.8916 0.955096 19.2 1.30045 19.2H5.50222L6.54552 12.5837L7.68075 5.38355C7.70651 5.22082 7.78948 5.07262 7.91471 4.96556C8.03994 4.85851 8.19924 4.79962 8.36399 4.79949H14.3834C15.4788 4.79949 16.478 5.05503 17.3289 5.5009C17.3872 2.48757 14.9007 -0.000244141 11.4821 -0.000244141H4.26192Z" fill="#003087"/>
</svg>
