<svg width="25" height="24" viewBox="0 0 25 24" fill="none" xmlns="http://www.w3.org/2000/svg">
<g clip-path="url(#clip0_197_6843)">
<mask id="mask0_197_6843" style="mask-type:luminance" maskUnits="userSpaceOnUse" x="0" y="0" width="25" height="24">
<path d="M12.6665 24C19.2939 24 24.6665 18.6274 24.6665 12C24.6665 5.37258 19.2939 0 12.6665 0C6.03909 0 0.666504 5.37258 0.666504 12C0.666504 18.6274 6.03909 24 12.6665 24Z" fill="white"/>
</mask>
<g mask="url(#mask0_197_6843)">
<path d="M0.666504 0H24.6665V24H0.666504V0Z" fill="#0052B4"/>
<path d="M12.6664 4.69678L13.0555 5.89209H14.307L13.2898 6.62803L13.6789 7.82803L12.6617 7.0874L11.6445 7.82803L12.0336 6.62803L11.0164 5.89209H12.2727L12.6664 4.69678ZM7.50078 6.83428L8.62578 7.40615L9.51172 6.51553L9.31484 7.75771L10.4352 8.32959L9.19297 8.52646L8.99609 9.76865L8.42422 8.64365L7.18203 8.84521L8.07266 7.95459L7.50078 6.83428ZM5.36328 11.9999L6.55859 11.6108V10.3593L7.29453 11.3765L8.49453 10.9874L7.75391 12.0046L8.49453 13.0218L7.29453 12.6327L6.55859 13.6499V12.3937L5.36328 11.9999ZM7.50078 17.1655L8.07266 16.0405L7.18203 15.1546L8.42422 15.3515L8.99609 14.2312L9.19297 15.4733L10.4352 15.6702L9.31016 16.2421L9.51172 17.4843L8.62109 16.5937L7.50078 17.1655ZM12.6664 19.303L12.2773 18.1077H11.0258L12.043 17.3718L11.6539 16.1718L12.6711 16.9124L13.6883 16.1718L13.2992 17.3718L14.3164 18.1077H13.0602L12.6664 19.303ZM17.832 17.1655L16.707 16.5937L15.8211 17.4843L16.018 16.2421L14.8977 15.6702L16.1398 15.4733L16.3367 14.2312L16.9086 15.3562L18.1508 15.1546L17.2602 16.0452L17.832 17.1655ZM19.9695 11.9999L18.7742 12.389V13.6405L18.0383 12.6233L16.8383 13.0124L17.5789 11.9952L16.8383 10.978L18.0383 11.3671L18.7742 10.3499V11.6062L19.9695 11.9999ZM17.832 6.83428L17.2602 7.95928L18.1508 8.84521L16.9086 8.64834L16.3367 9.76865L16.1398 8.52646L14.8977 8.32959L16.0227 7.75771L15.8211 6.51553L16.7117 7.40615L17.832 6.83428Z" fill="#FFDA44"/>
</g>
</g>
<defs>
<clipPath id="clip0_197_6843">
<rect width="24" height="24" fill="white" transform="translate(0.666504)"/>
</clipPath>
</defs>
</svg>
