<svg width="93" height="16" viewBox="0 0 93 16" fill="none" xmlns="http://www.w3.org/2000/svg">
<g clip-path="url(#clip0_197_6856)">
<path d="M90.9342 1.21596C89.7544 0.407621 87.9686 -4.97033e-05 85.6279 -4.97033e-05H79.4979L77.2189 12.372H69.1883L69.7045 9.56506H74.542L75.1152 6.4124L70.2805 6.41936L70.7981 3.62492H75.7809L76.4439 0.000672492H66.3248L64.1613 11.7364H60.4479L62.626 5.52312e-05H57.3364L55.1729 11.7357H51.5554L53.7356 5.52312e-05H48.4488L46.167 12.3721H38.0787L38.59 9.56517H43.447L44.0209 6.43041L39.1686 6.42554L39.6834 3.62555H44.7221L45.3809 -0.000244141H13.8481L12.0533 9.80372L8.47905 -0.000244141H2.99098L0.0372314 15.9998H5.2784L7.06623 5.92547L10.5346 15.9998H29.3185L31.6023 3.62401H34.5401L32.2563 15.9998H81.6804L83.1134 8.18773L85.4313 15.9998H90.6753L88.2732 9.61638L88.8228 9.49812C90.0332 9.23864 90.9772 8.68142 91.6346 7.84596C92.2913 7.00284 92.6259 5.92038 92.6259 4.62015C92.6259 3.10641 92.0722 1.99268 90.9327 1.21503L90.9342 1.21596ZM24.7576 12.372H16.7347L17.253 9.56506H22.2852L22.8557 6.40345H17.8719L18.3519 3.62571H26.363L24.7561 12.372L24.7576 12.372ZM86.6134 6.98272C86.0861 7.35141 85.3215 7.53088 84.276 7.53088H83.2394L84.0346 3.23721H84.797C85.6652 3.23721 86.2982 3.37634 86.7351 3.66016C87.076 3.88277 87.4815 4.32313 87.4815 5.15581C87.4803 6.16312 87.0085 6.70433 86.6119 6.9826L86.6134 6.98272Z" fill="#76BA0E"/>
</g>
<defs>
<clipPath id="clip0_197_6856">
<rect width="92.5892" height="16" fill="white" transform="translate(0.0386963)"/>
</clipPath>
</defs>
</svg>
