<svg width="24" height="24" viewBox="0 0 24 24" fill="none" xmlns="http://www.w3.org/2000/svg">
<path fill-rule="evenodd" clip-rule="evenodd" d="M18.084 0H5.916C2.652 0 0 2.652 0 5.916V18.084C0 21.354 2.652 24 5.916 24H18.084C21.354 24 24 21.348 24 18.084V5.916C24 2.646 21.348 0 18.084 0ZM12.834 13.638C12.846 13.692 12.894 13.728 12.948 13.728H15.87C15.924 13.728 15.972 13.692 15.984 13.638L17.532 7.77C17.55 7.692 17.496 7.62 17.418 7.62H6.924C6.846 7.62 6.786 7.692 6.81 7.77L9.3 17.484C9.312 17.538 9.36 17.574 9.414 17.574H18.774C18.84 17.574 18.894 17.628 18.894 17.694V19.674C18.894 19.74 18.84 19.794 18.774 19.794H7.686C7.632 19.794 7.584 19.758 7.572 19.704L4.92 9.21C4.908 9.156 4.86 9.12 4.806 9.12H3.756C3.678 9.12 3.624 9.048 3.642 8.97L4.47 5.484C4.482 5.43 4.53 5.394 4.584 5.394H20.25C20.328 5.394 20.388 5.466 20.364 5.544L17.838 15.36C17.826 15.414 17.778 15.45 17.724 15.45H11.124C11.07 15.45 11.022 15.414 11.01 15.36L9.654 9.978C9.636 9.9 9.69 9.828 9.768 9.828H14.604C14.682 9.828 14.742 9.9 14.718 9.978L14.226 11.964C14.214 12.018 14.166 12.054 14.112 12.054H12.576C12.498 12.054 12.438 12.126 12.462 12.204L12.84 13.626L12.834 13.638Z" fill="#FFB600"/>
</svg>
