<svg width="56" height="24" viewBox="0 0 56 24" fill="none" xmlns="http://www.w3.org/2000/svg">
<g clip-path="url(#clip0_197_7142)">
<path d="M0.9646 22.7537V20.8242H2.39511V21.1507H1.35422V21.5784H2.32282V21.9035H1.35422V22.4286H2.43213V22.7537H0.9646Z" fill="white"/>
<path d="M2.77856 20.8242H3.14844V21.1662H2.77856V20.8242ZM2.77856 21.3559H3.14844V22.7537H2.77856V21.3559Z" fill="white"/>
<path d="M4.81765 22.7538H4.44777V22.0405C4.44777 21.8896 4.44001 21.7919 4.42415 21.7475C4.40828 21.7034 4.38289 21.6692 4.34728 21.6445C4.31167 21.6198 4.269 21.6075 4.21893 21.6075C4.15476 21.6075 4.09729 21.6251 4.04651 21.6604C3.99574 21.6953 3.96048 21.7418 3.94179 21.7997C3.92275 21.8575 3.91358 21.9647 3.91358 22.1205V22.7538H3.5437V21.3561H3.88714V21.5613C4.00914 21.4037 4.16287 21.3247 4.34799 21.3247C4.42944 21.3247 4.50384 21.3392 4.57154 21.3688C4.63923 21.398 4.69001 21.4358 4.72492 21.4813C4.75947 21.5267 4.7838 21.5786 4.7972 21.6364C4.81095 21.6942 4.81765 21.7774 4.81765 21.8853V22.7538Z" fill="white"/>
<path d="M5.58008 20.8245V21.5339C5.69926 21.3943 5.84207 21.3245 6.00779 21.3245C6.09277 21.3245 6.16963 21.3403 6.23804 21.3721C6.30644 21.4034 6.35792 21.444 6.39283 21.493C6.42739 21.542 6.45101 21.5967 6.4637 21.6563C6.4764 21.7158 6.48275 21.8086 6.48275 21.9341V22.7539H6.11322V22.0156C6.11322 21.8689 6.10617 21.7761 6.09206 21.7363C6.07796 21.6972 6.05328 21.6658 6.01766 21.6425C5.98205 21.6192 5.93762 21.6076 5.88403 21.6076C5.82267 21.6076 5.76767 21.6224 5.71971 21.652C5.67141 21.682 5.63615 21.7271 5.61358 21.7871C5.59137 21.8474 5.58008 21.9362 5.58008 22.0536V22.7539H5.21021V20.8245H5.58008Z" fill="white"/>
<path d="M7.68602 22.3089L8.05449 22.371C8.00724 22.506 7.93214 22.6086 7.83024 22.6795C7.72798 22.75 7.59999 22.7853 7.44661 22.7853C7.20331 22.7853 7.02349 22.706 6.90677 22.5469C6.81475 22.42 6.76855 22.2596 6.76855 22.0656C6.76855 21.834 6.8292 21.6524 6.9505 21.5212C7.07144 21.39 7.22447 21.3245 7.40958 21.3245C7.61762 21.3245 7.78158 21.3932 7.90182 21.5304C8.02205 21.6679 8.07953 21.878 8.07424 22.1615H7.1476C7.15042 22.2712 7.18004 22.3565 7.23716 22.4175C7.29428 22.4785 7.36551 22.5089 7.45049 22.5089C7.50831 22.5089 7.55697 22.4933 7.59646 22.4616C7.63595 22.4299 7.66593 22.3791 7.68602 22.3089ZM7.70718 21.9352C7.70436 21.828 7.67686 21.7469 7.62432 21.6912C7.57143 21.6355 7.50761 21.6076 7.43215 21.6076C7.35141 21.6076 7.28476 21.6369 7.23187 21.6958C7.17934 21.7543 7.1536 21.8343 7.1543 21.9352H7.70718Z" fill="white"/>
<path d="M8.39453 20.8242H8.76441V21.1662H8.39453V20.8242ZM8.39453 21.3559H8.76441V22.7537H8.39453V21.3559Z" fill="white"/>
<path d="M9.80323 21.3559V21.6507H9.55041V22.2142C9.55041 22.3281 9.55288 22.3947 9.55782 22.4134L9.59061 22.4603L9.65337 22.4786C9.68758 22.4786 9.73694 22.4666 9.80182 22.443L9.83355 22.73C9.74752 22.7667 9.6502 22.785 9.54125 22.785C9.4746 22.785 9.41466 22.7741 9.36107 22.7515C9.30747 22.7293 9.26833 22.7004 9.2433 22.6648C9.21826 22.6292 9.20098 22.5812 9.19111 22.5206C9.18335 22.4779 9.17948 22.3908 9.17948 22.26V21.6507H9.00952V21.3559H9.17948V21.0781L9.55041 20.8623V21.3559H9.80323Z" fill="white"/>
<path d="M10.0784 20.8242H10.4482V22.7537H10.0784V20.8242Z" fill="white"/>
<path d="M10.8464 20.8242H11.2163V21.1662H10.8464V20.8242ZM10.8464 21.3559H11.2163V22.7537H10.8464V21.3559Z" fill="white"/>
<path d="M12.8326 21.7692L12.468 21.8351C12.4557 21.7621 12.4278 21.7075 12.3845 21.6705C12.3411 21.6338 12.2847 21.6151 12.2156 21.6151C12.1232 21.6151 12.0498 21.6472 11.9948 21.7107C11.9402 21.7741 11.9127 21.8806 11.9127 22.0298C11.9127 22.1955 11.9405 22.3129 11.9963 22.3813C12.052 22.4497 12.1267 22.4836 12.2205 22.4836C12.291 22.4836 12.3481 22.4638 12.3929 22.424C12.4377 22.3841 12.4694 22.3154 12.4878 22.2181L12.851 22.2798C12.8132 22.4465 12.7409 22.5724 12.6338 22.6574C12.5269 22.7427 12.3834 22.785 12.2036 22.785C11.9991 22.785 11.8362 22.7205 11.7145 22.5918C11.5932 22.4628 11.5322 22.2844 11.5322 22.0562C11.5322 21.8253 11.5932 21.6458 11.7152 21.5171C11.8372 21.3887 12.0022 21.3242 12.2103 21.3242C12.3802 21.3242 12.5156 21.3609 12.6161 21.4342C12.7166 21.5076 12.7889 21.619 12.8326 21.7692Z" fill="white"/>
<path d="M13.5005 20.8245V21.5339C13.6197 21.3943 13.7625 21.3245 13.9282 21.3245C14.0132 21.3245 14.09 21.3403 14.1584 21.3721C14.2269 21.4034 14.2783 21.444 14.3132 21.493C14.3478 21.542 14.3714 21.5967 14.3841 21.6563C14.3968 21.7158 14.4032 21.8086 14.4032 21.9341V22.7539H14.0336V22.0156C14.0336 21.8689 14.0266 21.7761 14.0125 21.7363C13.9984 21.6972 13.9737 21.6658 13.9381 21.6425C13.9025 21.6192 13.858 21.6076 13.8044 21.6076C13.7431 21.6076 13.6881 21.6224 13.6401 21.652C13.5918 21.682 13.5562 21.7271 13.534 21.7871C13.5118 21.8474 13.5005 21.9362 13.5005 22.0536V22.7539H13.1306V20.8245H13.5005Z" fill="white"/>
<path d="M15.6066 22.3089L15.975 22.371C15.9278 22.506 15.8527 22.6086 15.7508 22.6795C15.6485 22.75 15.5205 22.7853 15.3672 22.7853C15.1239 22.7853 14.944 22.706 14.8273 22.5469C14.7353 22.42 14.6895 22.2596 14.6895 22.0656C14.6895 21.834 14.7497 21.6524 14.871 21.5212C14.992 21.39 15.145 21.3245 15.3301 21.3245C15.5382 21.3245 15.7021 21.3932 15.8224 21.5304C15.9426 21.6679 16.0001 21.878 15.9948 22.1615H15.0681C15.071 22.2712 15.1006 22.3565 15.1577 22.4175C15.2148 22.4785 15.2861 22.5089 15.371 22.5089C15.4289 22.5089 15.4775 22.4933 15.517 22.4616C15.5565 22.4299 15.5865 22.3791 15.6066 22.3089ZM15.6277 21.9352C15.6249 21.828 15.5974 21.7469 15.5449 21.6912C15.492 21.6355 15.4282 21.6076 15.3527 21.6076C15.272 21.6076 15.2053 21.6369 15.1524 21.6958C15.0999 21.7543 15.0741 21.8343 15.0748 21.9352H15.6277Z" fill="white"/>
<path d="M16.669 22.7538H16.2991V21.3561H16.6425V21.555C16.7014 21.4612 16.7543 21.3991 16.8012 21.3695C16.8481 21.3395 16.9013 21.3247 16.9613 21.3247C17.0455 21.3247 17.1266 21.348 17.2046 21.3942L17.09 21.7168C17.0279 21.6763 16.9697 21.6562 16.9165 21.6562C16.8646 21.6562 16.8206 21.6706 16.7846 21.6992C16.7486 21.7274 16.7204 21.7792 16.7 21.8536C16.6792 21.9284 16.669 22.0842 16.669 22.3222V22.7538Z" fill="white"/>
<path d="M18.1531 22.7537V20.8242H19.5836V21.1507H18.5427V21.5784H19.5113V21.9035H18.5427V22.4286H19.6206V22.7537H18.1531Z" fill="white"/>
<path d="M20.8869 22.7537V22.5446C20.8361 22.619 20.7692 22.6779 20.6863 22.7205C20.6034 22.7635 20.516 22.7854 20.4236 22.7854C20.3298 22.7854 20.2455 22.7646 20.1711 22.7233C20.0964 22.6821 20.0424 22.6243 20.0093 22.5499C19.9758 22.4751 19.9592 22.3722 19.9592 22.2403V21.356H20.3291V21.9984C20.3291 22.1948 20.3358 22.315 20.3492 22.3595C20.363 22.4039 20.3876 22.4388 20.4236 22.4649C20.4596 22.4906 20.5054 22.5037 20.5604 22.5037C20.6239 22.5037 20.6803 22.4864 20.7304 22.4518C20.7804 22.4169 20.8146 22.3739 20.833 22.3228C20.8513 22.2713 20.8605 22.1458 20.8605 21.9455V21.356H21.2304V22.7537H20.8869Z" fill="white"/>
<path d="M21.9863 22.7538H21.6165V21.3561H21.9599V21.555C22.0188 21.4612 22.0717 21.3991 22.1186 21.3695C22.1655 21.3395 22.2187 21.3247 22.2786 21.3247C22.3629 21.3247 22.444 21.348 22.5219 21.3942L22.4073 21.7168C22.3453 21.6763 22.2875 21.6562 22.2339 21.6562C22.182 21.6562 22.138 21.6706 22.102 21.6992C22.066 21.7274 22.0378 21.7792 22.0174 21.8536C21.9966 21.9284 21.9863 22.0842 21.9863 22.3222V22.7538Z" fill="white"/>
<path d="M22.6145 22.0352C22.6145 21.9125 22.6448 21.7937 22.7055 21.6784C22.7658 21.5638 22.8515 21.476 22.9625 21.4153C23.0736 21.355 23.1974 21.3247 23.3345 21.3247C23.5457 21.3247 23.7192 21.3931 23.8542 21.5306C23.9893 21.6678 24.057 21.8413 24.057 22.0511C24.057 22.2623 23.9886 22.4379 23.8521 22.5768C23.7157 22.7157 23.544 22.7852 23.337 22.7852C23.209 22.7852 23.0866 22.7563 22.9706 22.6984C22.8543 22.6406 22.7658 22.5556 22.7055 22.4439C22.6448 22.3321 22.6145 22.1956 22.6145 22.0352ZM22.9935 22.0549C22.9935 22.1935 23.0263 22.2997 23.0923 22.3733C23.1582 22.447 23.2393 22.4841 23.3356 22.4841C23.4322 22.4841 23.5129 22.447 23.5785 22.3733C23.6437 22.2997 23.6765 22.1928 23.6765 22.0521C23.6765 21.9153 23.6437 21.8102 23.5785 21.7365C23.5129 21.6629 23.4322 21.6258 23.3356 21.6258C23.2393 21.6258 23.1582 21.6629 23.0923 21.7365C23.0263 21.8102 22.9935 21.9164 22.9935 22.0549Z" fill="white"/>
<path d="M24.3232 21.8694H25.0496V22.2393H24.3232V21.8694Z" fill="white"/>
<path d="M25.1172 22.7537V22.4025L26.1306 21.1507H25.2318V20.8242H26.644V21.1271L25.5872 22.4286H26.6845V22.7537H25.1172Z" fill="white"/>
<path d="M27.2234 21.7825L26.8877 21.7218C26.9254 21.5868 26.9903 21.4867 27.0827 21.4218C27.1747 21.3569 27.3115 21.3245 27.4931 21.3245C27.6581 21.3245 27.7808 21.3439 27.8616 21.383C27.9423 21.4221 27.9991 21.4719 28.0319 21.5318C28.065 21.5921 28.0812 21.7025 28.0812 21.8625L28.0774 22.2945C28.0774 22.4175 28.0834 22.5078 28.0954 22.566C28.107 22.6245 28.1292 22.6869 28.1616 22.7539H27.796C27.7861 22.7292 27.7745 22.6929 27.7604 22.6446L27.747 22.6012C27.6839 22.6626 27.6165 22.7088 27.5446 22.7395C27.4727 22.7698 27.3958 22.7853 27.3143 22.7853C27.1701 22.7853 27.0569 22.7465 26.9741 22.6682C26.8912 22.5903 26.8496 22.4916 26.8496 22.372C26.8496 22.2931 26.8683 22.2229 26.906 22.1608C26.9438 22.0991 26.9966 22.0515 27.0647 22.0187C27.1327 21.9859 27.2308 21.957 27.3588 21.9327C27.5319 21.8999 27.6514 21.8699 27.7181 21.8417V21.8047C27.7181 21.7338 27.7008 21.6831 27.6655 21.6527C27.6303 21.6228 27.5643 21.6076 27.4667 21.6076C27.4011 21.6076 27.3496 21.6203 27.3129 21.6464C27.2759 21.6721 27.2463 21.7176 27.2234 21.7825ZM27.7181 22.0826C27.6708 22.0984 27.5957 22.1175 27.4931 22.1393C27.3905 22.1612 27.3235 22.1827 27.2918 22.2035C27.2435 22.2377 27.2195 22.2814 27.2195 22.334C27.2195 22.3858 27.2389 22.4306 27.2773 22.468C27.3161 22.506 27.3651 22.5247 27.4247 22.5247C27.4913 22.5247 27.5552 22.5029 27.6155 22.4588C27.6602 22.4256 27.6899 22.3847 27.7036 22.3364C27.7135 22.3047 27.7181 22.2448 27.7181 22.1562V22.0826Z" fill="white"/>
<path d="M28.8333 20.8245V21.5339C28.9524 21.3943 29.0949 21.3245 29.261 21.3245C29.3459 21.3245 29.4228 21.3403 29.4912 21.3721C29.5596 21.4034 29.6111 21.444 29.646 21.493C29.6806 21.542 29.7042 21.5967 29.7169 21.6563C29.7296 21.7158 29.7359 21.8086 29.7359 21.9341V22.7539H29.366V22.0156C29.366 21.8689 29.359 21.7761 29.3452 21.7363C29.3311 21.6972 29.3064 21.6658 29.2708 21.6425C29.2352 21.6192 29.1908 21.6076 29.1372 21.6076C29.0758 21.6076 29.0208 21.6224 28.9725 21.652C28.9246 21.682 28.889 21.7271 28.8668 21.7871C28.8442 21.8474 28.8333 21.9362 28.8333 22.0536V22.7539H28.4634V20.8245H28.8333Z" fill="white"/>
<path d="M30.1299 20.8242H30.4998V22.7537H30.1299V20.8242Z" fill="white"/>
<path d="M31.8176 22.7537V22.5446C31.7668 22.619 31.6998 22.6779 31.617 22.7205C31.5341 22.7635 31.4463 22.7854 31.3543 22.7854C31.2605 22.7854 31.1762 22.7646 31.1018 22.7233C31.0271 22.6821 30.9731 22.6243 30.9396 22.5499C30.9065 22.4751 30.8899 22.3722 30.8899 22.2403V21.356H31.2594V21.9984C31.2594 22.1948 31.2665 22.315 31.2799 22.3595C31.2933 22.4039 31.3183 22.4388 31.3543 22.4649C31.3902 22.4906 31.4361 22.5037 31.4911 22.5037C31.5542 22.5037 31.611 22.4864 31.661 22.4518C31.7111 22.4169 31.745 22.3739 31.7636 22.3228C31.782 22.2713 31.7911 22.1458 31.7911 21.9455V21.356H32.161V22.7537H31.8176Z" fill="white"/>
<path d="M33.8343 22.7538H33.4644V22.0405C33.4644 21.8896 33.4566 21.7919 33.4407 21.7475C33.4249 21.7034 33.3991 21.6692 33.3635 21.6445C33.3283 21.6198 33.2853 21.6075 33.2355 21.6075C33.1714 21.6075 33.1139 21.6251 33.0628 21.6604C33.012 21.6953 32.9774 21.7418 32.9584 21.7997C32.9393 21.8575 32.9302 21.9647 32.9302 22.1205V22.7538H32.5603V21.3561H32.9037V21.5613C33.0257 21.4037 33.1791 21.3247 33.3642 21.3247C33.446 21.3247 33.5204 21.3392 33.5881 21.3688C33.6555 21.398 33.7066 21.4358 33.7415 21.4813C33.7761 21.5267 33.8001 21.5786 33.8138 21.6364C33.8272 21.6942 33.8343 21.7774 33.8343 21.8853V22.7538Z" fill="white"/>
<path d="M34.1939 22.8457L34.6163 22.8972C34.6234 22.9462 34.6396 22.98 34.665 22.9984C34.6999 23.0248 34.7553 23.0379 34.8307 23.0379C34.9273 23.0379 34.9996 23.0234 35.0479 22.9941C35.0804 22.9751 35.105 22.9441 35.1216 22.9011C35.1329 22.8704 35.1385 22.8136 35.1385 22.7311V22.5273C35.0282 22.6782 34.8889 22.7537 34.7204 22.7537C34.5324 22.7537 34.3836 22.6743 34.274 22.5153C34.1883 22.3901 34.1453 22.2339 34.1453 22.0467C34.1453 21.8126 34.2013 21.6338 34.3142 21.5097C34.427 21.3863 34.567 21.3242 34.7348 21.3242C34.9076 21.3242 35.0504 21.4004 35.1625 21.552V21.356H35.5084V22.6102C35.5084 22.7748 35.495 22.8982 35.4679 22.98C35.4404 23.0615 35.4023 23.1257 35.3533 23.1722C35.3043 23.2187 35.2383 23.2551 35.1565 23.2815C35.0744 23.3076 34.9707 23.3206 34.8452 23.3206C34.6082 23.3206 34.4404 23.2801 34.3413 23.199C34.2419 23.1179 34.1925 23.0149 34.1925 22.8905L34.1939 22.8457ZM34.5243 22.0255C34.5243 22.174 34.5529 22.2826 34.6103 22.3517C34.6678 22.4205 34.7387 22.455 34.823 22.455C34.9132 22.455 34.9894 22.4194 35.0518 22.3489C35.1142 22.2784 35.1452 22.1736 35.1452 22.0351C35.1452 21.8901 35.1156 21.783 35.0557 21.7128C34.9961 21.6426 34.9206 21.6074 34.8293 21.6074C34.7408 21.6074 34.6678 21.6419 34.6103 21.7107C34.5529 21.7794 34.5243 21.8845 34.5243 22.0255Z" fill="white"/>
<path d="M35.7629 22.3551L36.1342 22.2983C36.1497 22.3703 36.1818 22.4249 36.2301 22.4623C36.2784 22.4997 36.3458 22.5184 36.4329 22.5184C36.5284 22.5184 36.6004 22.5007 36.6487 22.4658C36.6811 22.4412 36.6973 22.408 36.6973 22.3668L36.6709 22.2973C36.6526 22.2797 36.6113 22.2634 36.5471 22.2483C36.2492 22.1827 36.0598 22.1228 35.9801 22.0681C35.8698 21.9926 35.8141 21.8879 35.8141 21.7536C35.8141 21.6326 35.862 21.5307 35.9576 21.4482C36.0535 21.3657 36.2016 21.3245 36.4026 21.3245C36.5937 21.3245 36.7361 21.3558 36.8289 21.4183C36.9219 21.4803 36.9861 21.5723 37.021 21.6943L36.6723 21.7589C36.6575 21.7046 36.6289 21.6626 36.5873 21.634C36.5457 21.6048 36.4861 21.5903 36.4089 21.5903C36.3119 21.5903 36.2421 21.6041 36.1998 21.6312L36.1579 21.7063L36.1945 21.7733C36.228 21.798 36.343 21.8326 36.5401 21.8773C36.7368 21.9221 36.8747 21.9771 36.9526 22.0417C37.0298 22.1076 37.0686 22.1993 37.0686 22.3167C37.0686 22.445 37.015 22.555 36.9078 22.6471C36.801 22.7395 36.6423 22.7853 36.4329 22.7853C36.2425 22.7853 36.0919 22.7469 35.9808 22.6696C35.8698 22.5924 35.7971 22.4877 35.7629 22.3551Z" fill="white"/>
<path d="M37.7953 22.7537L37.2322 21.356H37.6204L37.8834 22.0693L37.9599 22.3076C37.98 22.247 37.9927 22.2071 37.998 22.1877C38.0104 22.1483 38.0234 22.1088 38.0375 22.0693L38.3034 21.356H38.6838L38.1285 22.7537H37.7953Z" fill="white"/>
<path d="M39.7384 22.3089L40.1069 22.371C40.0596 22.506 39.9845 22.6086 39.8826 22.6795C39.7804 22.75 39.6524 22.7853 39.499 22.7853C39.2557 22.7853 39.0759 22.706 38.9592 22.5469C38.8671 22.42 38.8213 22.2596 38.8213 22.0656C38.8213 21.834 38.8816 21.6524 39.0025 21.5212C39.1238 21.39 39.2768 21.3245 39.462 21.3245C39.67 21.3245 39.834 21.3932 39.9542 21.5304C40.0744 21.6679 40.1319 21.878 40.1266 22.1615H39.2003C39.2028 22.2712 39.2324 22.3565 39.2895 22.4175C39.3467 22.4785 39.4179 22.5089 39.5029 22.5089C39.5607 22.5089 39.6094 22.4933 39.6488 22.4616C39.6883 22.4299 39.7183 22.3791 39.7384 22.3089ZM39.7596 21.9352C39.7567 21.828 39.7292 21.7469 39.6763 21.6912C39.6238 21.6355 39.56 21.6076 39.4845 21.6076C39.4038 21.6076 39.3371 21.6369 39.2846 21.6958C39.2317 21.7543 39.206 21.8343 39.2067 21.9352H39.7596Z" fill="white"/>
<path d="M40.8008 22.7538H40.4309V21.3561H40.7743V21.555C40.8332 21.4612 40.8861 21.3991 40.933 21.3695C40.9799 21.3395 41.0332 21.3247 41.0927 21.3247C41.177 21.3247 41.2585 21.348 41.3364 21.3942L41.2218 21.7168C41.1597 21.6763 41.1016 21.6562 41.0483 21.6562C40.9965 21.6562 40.9524 21.6706 40.9164 21.6992C40.8805 21.7274 40.8523 21.7792 40.8318 21.8536C40.811 21.9284 40.8008 22.0842 40.8008 22.3222V22.7538Z" fill="white"/>
<path d="M41.5012 22.7537V20.8242H41.8711V21.8482L42.3041 21.3559H42.7593L42.2819 21.8665L42.7939 22.7537H42.3951L42.0435 22.1257L41.8711 22.3062V22.7537H41.5012Z" fill="white"/>
<path d="M43.8418 22.3089L44.2103 22.371C44.163 22.506 44.0883 22.6086 43.986 22.6795C43.8834 22.75 43.7558 22.7853 43.6024 22.7853C43.3591 22.7853 43.1792 22.706 43.0625 22.5469C42.9705 22.42 42.9243 22.2596 42.9243 22.0656C42.9243 21.834 42.985 21.6524 43.1063 21.5212C43.2272 21.39 43.3802 21.3245 43.5653 21.3245C43.7734 21.3245 43.9373 21.3932 44.0576 21.5304C44.1778 21.6679 44.2353 21.878 44.23 22.1615H43.3034C43.3062 22.2712 43.3362 22.3565 43.3929 22.4175C43.45 22.4785 43.5209 22.5089 43.6062 22.5089C43.6641 22.5089 43.7127 22.4933 43.7522 22.4616C43.7917 22.4299 43.8217 22.3791 43.8418 22.3089ZM43.8629 21.9352C43.8601 21.828 43.8326 21.7469 43.7801 21.6912C43.7275 21.6355 43.663 21.6076 43.5876 21.6076C43.5068 21.6076 43.4402 21.6369 43.3876 21.6958C43.3351 21.7543 43.3094 21.8343 43.3101 21.9352H43.8629Z" fill="white"/>
<path d="M44.919 20.8245V21.5339C45.0381 21.3943 45.1806 21.3245 45.3467 21.3245C45.4316 21.3245 45.5085 21.3403 45.5769 21.3721C45.6453 21.4034 45.6968 21.444 45.7317 21.493C45.7663 21.542 45.7899 21.5967 45.8026 21.6563C45.8153 21.7158 45.8216 21.8086 45.8216 21.9341V22.7539H45.4517V22.0156C45.4517 21.8689 45.4447 21.7761 45.4309 21.7363C45.4168 21.6972 45.3921 21.6658 45.3565 21.6425C45.3209 21.6192 45.2765 21.6076 45.2229 21.6076C45.1615 21.6076 45.1065 21.6224 45.0582 21.652C45.0103 21.682 44.9747 21.7271 44.9524 21.7871C44.9299 21.8474 44.919 21.9362 44.919 22.0536V22.7539H44.5491V20.8245H44.919Z" fill="white"/>
<path d="M46.5696 22.7538H46.1997V21.3561H46.5431V21.555C46.602 21.4612 46.6549 21.3991 46.7018 21.3695C46.7487 21.3395 46.802 21.3247 46.8619 21.3247C46.9458 21.3247 47.0269 21.348 47.1052 21.3942L46.9906 21.7168C46.9285 21.6763 46.8704 21.6562 46.8171 21.6562C46.7653 21.6562 46.7212 21.6706 46.6852 21.6992C46.6493 21.7274 46.6211 21.7792 46.6006 21.8536C46.5798 21.9284 46.5696 22.0842 46.5696 22.3222V22.7538Z" fill="white"/>
<path d="M47.1531 22.3551L47.524 22.2983C47.5399 22.3703 47.572 22.4249 47.6203 22.4623C47.6686 22.4997 47.7359 22.5184 47.823 22.5184C47.9186 22.5184 47.9905 22.5007 48.0388 22.4658C48.0713 22.4412 48.0875 22.408 48.0875 22.3668L48.061 22.2973C48.0427 22.2797 48.0014 22.2634 47.9373 22.2483C47.639 22.1827 47.45 22.1228 47.3703 22.0681C47.2599 21.9926 47.2042 21.8879 47.2042 21.7536C47.2042 21.6326 47.2522 21.5307 47.3477 21.4482C47.4436 21.3657 47.5917 21.3245 47.7927 21.3245C47.9838 21.3245 48.1259 21.3558 48.219 21.4183C48.3121 21.4803 48.3762 21.5723 48.4112 21.6943L48.0624 21.7589C48.0476 21.7046 48.0191 21.6626 47.9775 21.634C47.9359 21.6048 47.8763 21.5903 47.799 21.5903C47.7021 21.5903 47.6323 21.6041 47.59 21.6312L47.548 21.7063L47.5847 21.7733C47.6182 21.798 47.7331 21.8326 47.9302 21.8773C48.127 21.9221 48.2648 21.9771 48.3428 22.0417C48.42 22.1076 48.4588 22.1993 48.4588 22.3167C48.4588 22.445 48.4052 22.555 48.298 22.6471C48.1911 22.7395 48.0325 22.7853 47.823 22.7853C47.6323 22.7853 47.4821 22.7469 47.371 22.6696C47.2599 22.5924 47.1873 22.4877 47.1531 22.3551Z" fill="white"/>
<path d="M49.155 22.7538H48.7852V21.3561H49.1286V21.555C49.1875 21.4612 49.2404 21.3991 49.2873 21.3695C49.3342 21.3395 49.3874 21.3247 49.4473 21.3247C49.5316 21.3247 49.6127 21.348 49.6906 21.3942L49.576 21.7168C49.514 21.6763 49.4562 21.6562 49.4026 21.6562C49.3507 21.6562 49.307 21.6706 49.2707 21.6992C49.2351 21.7274 49.2065 21.7792 49.1861 21.8536C49.1653 21.9284 49.155 22.0842 49.155 22.3222V22.7538Z" fill="white"/>
<path d="M50.1452 21.7825L49.8096 21.7218C49.8476 21.5868 49.9125 21.4867 50.0046 21.4218C50.0966 21.3569 50.2334 21.3245 50.415 21.3245C50.58 21.3245 50.7031 21.3439 50.7834 21.383C50.8642 21.4221 50.9213 21.4719 50.9541 21.5318C50.9869 21.5921 51.0031 21.7025 51.0031 21.8625L50.9992 22.2945C50.9992 22.4175 51.0052 22.5078 51.0172 22.566C51.0292 22.6245 51.0511 22.6869 51.0835 22.7539H50.7179C50.708 22.7292 50.6964 22.6929 50.6823 22.6446L50.6692 22.6012C50.6061 22.6626 50.5384 22.7088 50.4665 22.7395C50.3945 22.7698 50.3177 22.7853 50.2362 22.7853C50.0923 22.7853 49.9788 22.7465 49.8959 22.6682C49.8131 22.5903 49.7715 22.4916 49.7715 22.372C49.7715 22.2931 49.7905 22.2229 49.8283 22.1608C49.866 22.0991 49.9185 22.0515 49.9869 22.0187C50.0546 21.9859 50.1526 21.957 50.281 21.9327C50.4538 21.8999 50.5733 21.8699 50.6399 21.8417V21.8047C50.6399 21.7338 50.6227 21.6831 50.5874 21.6527C50.5525 21.6228 50.4862 21.6076 50.3889 21.6076C50.323 21.6076 50.2715 21.6203 50.2348 21.6464C50.1978 21.6721 50.1682 21.7176 50.1452 21.7825ZM50.6399 22.0826C50.5927 22.0984 50.5176 22.1175 50.415 22.1393C50.3124 22.1612 50.2454 22.1827 50.2136 22.2035C50.1657 22.2377 50.1414 22.2814 50.1414 22.334C50.1414 22.3858 50.1608 22.4306 50.1992 22.468C50.238 22.506 50.287 22.5247 50.3466 22.5247C50.4132 22.5247 50.477 22.5029 50.5377 22.4588C50.5821 22.4256 50.6117 22.3847 50.6258 22.3364C50.6354 22.3047 50.6399 22.2448 50.6399 22.1562V22.0826Z" fill="white"/>
<path d="M52.3065 22.7537V22.5446C52.2557 22.619 52.1887 22.6779 52.1058 22.7205C52.023 22.7635 51.9355 22.7854 51.8431 22.7854C51.7494 22.7854 51.6651 22.7646 51.5907 22.7233C51.5159 22.6821 51.462 22.6243 51.4288 22.5499C51.3953 22.4751 51.3784 22.3722 51.3784 22.2403V21.356H51.7483V21.9984C51.7483 22.1948 51.755 22.315 51.7687 22.3595C51.7825 22.4039 51.8072 22.4388 51.8431 22.4649C51.8791 22.4906 51.925 22.5037 51.98 22.5037C52.0434 22.5037 52.0998 22.4864 52.1499 22.4518C52.1996 22.4169 52.2342 22.3739 52.2525 22.3228C52.2709 22.2713 52.28 22.1458 52.28 21.9455V21.356H52.6499V22.7537H52.3065Z" fill="white"/>
<path d="M53.0242 21.356H53.3648V21.5467C53.4871 21.3986 53.6321 21.3242 53.8006 21.3242C53.8902 21.3242 53.9677 21.3429 54.0333 21.3796C54.0996 21.4166 54.1532 21.4723 54.1955 21.5467C54.2569 21.4723 54.3232 21.4166 54.3944 21.3796C54.4653 21.3429 54.5411 21.3242 54.6218 21.3242C54.7244 21.3242 54.8112 21.3454 54.8824 21.387C54.9536 21.4286 55.0065 21.4899 55.0418 21.5707C55.0671 21.6303 55.0798 21.7269 55.0798 21.8602V22.7537H54.71V21.955C54.71 21.8161 54.6973 21.7269 54.6719 21.6863C54.6377 21.6338 54.5851 21.6074 54.5139 21.6074C54.4621 21.6074 54.4134 21.6232 54.3679 21.655C54.3225 21.6863 54.2893 21.7325 54.2692 21.7935C54.2491 21.8545 54.2389 21.9508 54.2389 22.0823V22.7537H53.869V21.9878C53.869 21.8517 53.8627 21.7639 53.8493 21.7244C53.8362 21.6849 53.8158 21.6557 53.7883 21.6363C53.7604 21.6172 53.723 21.6074 53.6754 21.6074C53.6187 21.6074 53.5672 21.6225 53.5217 21.6535C53.4759 21.6842 53.4434 21.7287 53.4237 21.7865C53.4039 21.8443 53.3941 21.9402 53.3941 22.0746V22.7537H53.0242V21.356Z" fill="white"/>
<path d="M0.917969 18.4331L1.47402 18.3792C1.50717 18.5657 1.57522 18.7025 1.67747 18.7903C1.77973 18.8778 1.91795 18.9215 2.09143 18.9215C2.27549 18.9215 2.41406 18.8823 2.5075 18.8048C2.60058 18.7268 2.64748 18.6359 2.64748 18.5315C2.64748 18.4649 2.62773 18.4077 2.5886 18.3605C2.5491 18.3139 2.4807 18.273 2.38303 18.2381C2.31603 18.2149 2.16371 18.1736 1.92535 18.1147C1.61929 18.0386 1.40421 17.9455 1.2808 17.8348C1.10696 17.6793 1.02022 17.4892 1.02022 17.2653C1.02022 17.1214 1.06113 16.9864 1.14293 16.8612C1.22438 16.7353 1.34215 16.6401 1.49624 16.5742C1.64962 16.5086 1.83544 16.4758 2.05299 16.4758C2.40806 16.4758 2.67534 16.5538 2.85481 16.7096C3.03428 16.8651 3.12878 17.0731 3.1376 17.333L2.56638 17.358C2.5417 17.2124 2.48951 17.108 2.40912 17.0442C2.32873 16.9808 2.20779 16.9487 2.047 16.9487C1.88128 16.9487 1.75117 16.9829 1.65737 17.0513C1.59673 17.0946 1.5664 17.1535 1.5664 17.2269C1.5664 17.2935 1.59461 17.351 1.65138 17.3986C1.72331 17.4592 1.89855 17.522 2.1764 17.5876C2.45425 17.6532 2.65982 17.7212 2.79311 17.7914C2.92639 17.8616 3.03041 17.9575 3.10586 18.0788C3.18097 18.2008 3.2187 18.351 3.2187 18.5297C3.2187 18.6919 3.17356 18.8436 3.08365 18.9853C2.99338 19.1267 2.86609 19.2318 2.70143 19.3009C2.53676 19.3696 2.33155 19.4042 2.08579 19.4042C1.7279 19.4042 1.45322 19.3213 1.2614 19.156C1.06959 18.9906 0.955345 18.7498 0.917969 18.4331Z" fill="white"/>
<path d="M3.81421 16.5244H4.35651V17.0262H3.81421V16.5244ZM3.81421 17.304H4.35651V19.354H3.81421V17.304Z" fill="white"/>
<path d="M6.89554 19.354H6.35323V18.3079C6.35323 18.0864 6.3416 17.9433 6.31833 17.8784C6.29541 17.8135 6.25768 17.7627 6.20549 17.7268C6.15331 17.6908 6.09055 17.6728 6.01721 17.6728C5.92341 17.6728 5.83914 17.6986 5.76439 17.75C5.68964 17.8015 5.63851 17.8696 5.61101 17.9546C5.58315 18.0395 5.5694 18.1964 5.5694 18.4256V19.354H5.0271V17.304H5.53097V17.6051C5.70974 17.3735 5.93505 17.2578 6.20655 17.2578C6.32608 17.2578 6.43539 17.2793 6.53447 17.3223C6.63355 17.3657 6.70866 17.4207 6.75943 17.4874C6.81021 17.5544 6.84547 17.6305 6.86557 17.7151C6.88566 17.8001 6.89554 17.9218 6.89554 18.0801V19.354Z" fill="white"/>
<path d="M7.51421 19.4891L8.13373 19.5645C8.14395 19.6365 8.16793 19.6858 8.2053 19.713C8.25678 19.7518 8.33753 19.7708 8.4486 19.7708C8.58999 19.7708 8.69613 19.7496 8.767 19.7073C8.8146 19.6788 8.85057 19.6333 8.8749 19.5702C8.89147 19.525 8.89993 19.4422 8.89993 19.3212V19.0219C8.73809 19.2433 8.53322 19.354 8.2864 19.354C8.01102 19.354 7.79276 19.2373 7.63197 19.0046C7.50574 18.8205 7.44263 18.5917 7.44263 18.3174C7.44263 17.9739 7.52549 17.7113 7.69086 17.53C7.85623 17.3484 8.0618 17.2578 8.30756 17.2578C8.56108 17.2578 8.77017 17.3689 8.93484 17.5917V17.304H9.44258V19.1435C9.44258 19.3854 9.42249 19.5663 9.38264 19.6858C9.3428 19.8057 9.28673 19.8995 9.2148 19.9679C9.14252 20.036 9.04626 20.0892 8.92602 20.128C8.80579 20.1664 8.65346 20.1858 8.46976 20.1858C8.12209 20.1858 7.87562 20.1262 7.73035 20.0074C7.58508 19.8882 7.51244 19.7373 7.51244 19.5547L7.51421 19.4891ZM7.99868 18.2867C7.99868 18.5039 8.04064 18.6633 8.12526 18.7645C8.20918 18.8653 8.3132 18.9157 8.43696 18.9157C8.56919 18.9157 8.68132 18.8639 8.77264 18.7606C8.86396 18.6569 8.9098 18.5036 8.9098 18.3001C8.9098 18.0878 8.86608 17.9302 8.77864 17.8273C8.69084 17.7243 8.58012 17.6728 8.44648 17.6728C8.31637 17.6728 8.20918 17.7232 8.12526 17.8241C8.04064 17.9253 7.99868 18.0794 7.99868 18.2867Z" fill="white"/>
<path d="M10.0974 16.5244H10.6397V19.354H10.0974V16.5244Z" fill="white"/>
<path d="M12.5014 18.7015L13.042 18.7921C12.9725 18.9903 12.8625 19.1412 12.7126 19.2448C12.5628 19.3485 12.3752 19.4003 12.1502 19.4003C11.7938 19.4003 11.53 19.2836 11.3586 19.0509C11.2236 18.8644 11.1562 18.6288 11.1562 18.3443C11.1562 18.0047 11.2448 17.7385 11.4225 17.546C11.6002 17.3538 11.8244 17.2576 12.0959 17.2576C12.4009 17.2576 12.6418 17.3584 12.8181 17.5597C12.9944 17.7611 13.0786 18.0696 13.0709 18.4853H11.7119C11.7158 18.6461 11.7596 18.7713 11.8431 18.8608C11.9267 18.9501 12.0311 18.9948 12.1559 18.9948C12.2409 18.9948 12.3124 18.9716 12.3703 18.9254C12.4281 18.8792 12.4718 18.8044 12.5014 18.7015ZM12.5325 18.1532C12.5286 17.9963 12.488 17.8767 12.4108 17.7953C12.3336 17.7135 12.2394 17.6726 12.1287 17.6726C12.0106 17.6726 11.9126 17.716 11.8354 17.802C11.7581 17.888 11.7204 18.0054 11.7215 18.1532H12.5325Z" fill="white"/>
<path d="M14.8523 19.3538V16.5242H16.9503V17.0026H15.4235V17.6303H16.8441V18.107H15.4235V18.8771H17.0046V19.3538H14.8523Z" fill="white"/>
<path d="M18.9527 19.354V19.0472C18.878 19.1565 18.78 19.2426 18.6583 19.3057C18.5367 19.3688 18.4083 19.4002 18.2733 19.4002C18.1354 19.4002 18.012 19.3702 17.9027 19.3096C17.7934 19.2489 17.714 19.1643 17.6654 19.0546C17.6164 18.9453 17.592 18.7941 17.592 18.6012V17.304H18.1343V18.2461C18.1343 18.5342 18.1442 18.7108 18.1643 18.7761C18.1841 18.8409 18.2204 18.8924 18.2733 18.9305C18.3262 18.9682 18.3932 18.9873 18.4739 18.9873C18.5666 18.9873 18.6498 18.9619 18.7232 18.9111C18.7965 18.8603 18.8466 18.7969 18.8737 18.7218C18.9005 18.6463 18.9143 18.4623 18.9143 18.1689V17.304H19.4566V19.354H18.9527Z" fill="white"/>
<path d="M20.6561 19.354H20.1138V17.304H20.6176V17.5956C20.7037 17.4577 20.7812 17.3671 20.85 17.3234C20.9188 17.2797 20.997 17.2578 21.0845 17.2578C21.2082 17.2578 21.3271 17.292 21.4417 17.3601L21.2738 17.8329C21.1822 17.774 21.0975 17.7444 21.0189 17.7444C20.9431 17.7444 20.8786 17.7652 20.826 17.8072C20.7731 17.8488 20.7315 17.9246 20.7016 18.0339C20.6712 18.1432 20.6561 18.3724 20.6561 18.7208V19.354Z" fill="white"/>
<path d="M21.6685 18.3001C21.6685 18.1199 21.7129 17.9457 21.8017 17.7772C21.8906 17.6083 22.0161 17.4796 22.179 17.3911C22.3416 17.3022 22.5235 17.2578 22.7241 17.2578C23.0344 17.2578 23.2887 17.3587 23.4868 17.56C23.6846 17.7613 23.7841 18.0156 23.7841 18.3234C23.7841 18.6333 23.6839 18.8904 23.4837 19.0942C23.2837 19.2983 23.032 19.4002 22.728 19.4002C22.5401 19.4002 22.361 19.3579 22.1907 19.2729C22.02 19.188 21.8906 19.0635 21.8017 18.8995C21.7129 18.7352 21.6685 18.5356 21.6685 18.3001ZM22.2245 18.329C22.2245 18.5325 22.2725 18.688 22.3691 18.7962C22.4657 18.9041 22.5845 18.9584 22.7263 18.9584C22.8677 18.9584 22.9865 18.9041 23.0824 18.7962C23.1779 18.688 23.2263 18.5311 23.2263 18.3251C23.2263 18.1245 23.1779 17.9701 23.0824 17.8618C22.9865 17.7539 22.8677 17.7 22.7263 17.7C22.5845 17.7 22.4657 17.7539 22.3691 17.8618C22.2725 17.9701 22.2245 18.1256 22.2245 18.329Z" fill="white"/>
<path d="M25.5479 19.3538V16.5242H26.4646C26.8123 16.5242 27.0387 16.5383 27.1441 16.5665C27.3063 16.6091 27.442 16.7015 27.5513 16.8436C27.6606 16.9857 27.7153 17.1694 27.7153 17.3947C27.7153 17.5682 27.6839 17.7142 27.6208 17.8327C27.5577 17.9511 27.4776 18.0442 27.3807 18.1119C27.2834 18.1793 27.1846 18.2241 27.0841 18.2459C26.948 18.2727 26.7502 18.2865 26.4918 18.2865H26.1191V19.3538H25.5479ZM26.1191 17.0026V17.8059H26.4318C26.6571 17.8059 26.8077 17.7911 26.8835 17.7614C26.9593 17.7318 27.0189 17.6853 27.0619 17.6225C27.1053 17.5594 27.1268 17.4861 27.1268 17.4025C27.1268 17.2995 27.0965 17.2146 27.0362 17.1476C26.9755 17.0806 26.899 17.0386 26.8063 17.022C26.7382 17.0093 26.6011 17.0026 26.3952 17.0026H26.1191Z" fill="white"/>
<path d="M28.7044 17.9295L28.2126 17.8407C28.2676 17.6425 28.3631 17.4958 28.4982 17.4006C28.6332 17.3054 28.8338 17.2578 29.1004 17.2578C29.3419 17.2578 29.5221 17.2864 29.6406 17.3438C29.7591 17.401 29.8423 17.4736 29.8906 17.5618C29.9389 17.6499 29.9629 17.8118 29.9629 18.0473L29.9572 18.6802C29.9572 18.8607 29.966 18.9933 29.9833 19.079C30.0006 19.1643 30.033 19.2564 30.081 19.354H29.5443C29.5299 19.3181 29.5126 19.2645 29.4918 19.1939C29.483 19.1619 29.4766 19.1404 29.4728 19.1301C29.38 19.22 29.2809 19.2877 29.1755 19.3329C29.0701 19.378 28.9576 19.4002 28.8377 19.4002C28.6265 19.4002 28.4604 19.3431 28.3388 19.2285C28.2171 19.1139 28.1565 18.9693 28.1565 18.7941C28.1565 18.6784 28.184 18.5751 28.2394 18.4845C28.2944 18.3939 28.3719 18.3244 28.4721 18.2758C28.5715 18.2278 28.7154 18.1855 28.9033 18.1495C29.1568 18.1019 29.3324 18.0575 29.4301 18.0163V17.9623C29.4301 17.8579 29.4047 17.7839 29.3529 17.7395C29.3014 17.695 29.2044 17.6728 29.0616 17.6728C28.965 17.6728 28.8896 17.6919 28.8356 17.7299C28.7817 17.7677 28.7379 17.8343 28.7044 17.9295ZM29.4301 18.3696C29.3606 18.3928 29.251 18.4203 29.1004 18.4528C28.9498 18.4849 28.8511 18.5162 28.8049 18.5473C28.7341 18.5973 28.6988 18.6612 28.6988 18.7384C28.6988 18.8142 28.727 18.8798 28.7838 18.9351C28.8402 18.9905 28.9121 19.018 28.9999 19.018C29.0976 19.018 29.1907 18.9859 29.2795 18.9217C29.3451 18.8727 29.3885 18.8128 29.4093 18.7423C29.423 18.6957 29.4301 18.6076 29.4301 18.4778V18.3696Z" fill="white"/>
<path d="M30.3596 17.304H30.9368L31.4273 18.7595L31.9058 17.304H32.4675L31.7436 19.2768L31.6142 19.6336C31.5666 19.7535 31.5211 19.8448 31.4784 19.9079C31.4351 19.9707 31.3857 20.0222 31.3296 20.0613C31.2736 20.1004 31.2048 20.1311 31.123 20.153C31.0412 20.1748 30.9492 20.1858 30.8459 20.1858C30.7418 20.1858 30.6396 20.1748 30.5394 20.153L30.4908 19.7284C30.5758 19.745 30.6523 19.7535 30.7207 19.7535C30.8466 19.7535 30.94 19.7165 31.0003 19.6424C31.0609 19.5684 31.1071 19.4742 31.1396 19.3596L30.3596 17.304Z" fill="white"/>
<path d="M32.8928 17.304H33.3928V17.584C33.5716 17.3664 33.7846 17.2578 34.0317 17.2578C34.1629 17.2578 34.2768 17.2846 34.3734 17.3386C34.4697 17.3929 34.549 17.4747 34.6107 17.584C34.7006 17.4747 34.7979 17.3929 34.9023 17.3386C35.0063 17.2846 35.1177 17.2578 35.2362 17.2578C35.3868 17.2578 35.5141 17.2881 35.6181 17.3491C35.7225 17.4105 35.8004 17.5001 35.8519 17.6185C35.8889 17.7063 35.9079 17.8477 35.9079 18.0434V19.354H35.3653V18.1823C35.3653 17.9789 35.3469 17.8477 35.3096 17.7885C35.2591 17.7113 35.1819 17.6728 35.0779 17.6728C35.0017 17.6728 34.9305 17.6957 34.8635 17.7423C34.7965 17.7885 34.7486 17.8565 34.7189 17.9457C34.689 18.0353 34.6745 18.1763 34.6745 18.3696V19.354H34.1319V18.2306C34.1319 18.0311 34.1223 17.9024 34.103 17.8445C34.0839 17.7867 34.0539 17.7433 34.0134 17.7151C33.9728 17.6869 33.9178 17.6728 33.8484 17.6728C33.7645 17.6728 33.6893 17.695 33.6224 17.7402C33.5557 17.7853 33.5074 17.8502 33.4788 17.9352C33.4496 18.0201 33.4351 18.1612 33.4351 18.3579V19.354H32.8928V17.304Z" fill="white"/>
<path d="M37.754 18.7015L38.2945 18.7921C38.2251 18.9903 38.115 19.1412 37.9652 19.2448C37.8153 19.3485 37.6277 19.4003 37.4028 19.4003C37.0459 19.4003 36.7826 19.2836 36.6112 19.0509C36.4761 18.8644 36.4084 18.6288 36.4084 18.3443C36.4084 18.0047 36.4973 17.7385 36.675 17.546C36.8527 17.3538 37.077 17.2576 37.3485 17.2576C37.6535 17.2576 37.8943 17.3584 38.0706 17.5597C38.2466 17.7611 38.3312 18.0696 38.3234 18.4853H36.9645C36.9684 18.6461 37.0121 18.7713 37.0957 18.8608C37.1796 18.9501 37.2836 18.9948 37.4084 18.9948C37.4934 18.9948 37.565 18.9716 37.6228 18.9254C37.6806 18.8792 37.7244 18.8044 37.754 18.7015ZM37.785 18.1532C37.7811 17.9963 37.7406 17.8767 37.6634 17.7953C37.5861 17.7135 37.492 17.6726 37.3813 17.6726C37.2632 17.6726 37.1651 17.716 37.0879 17.802C37.0107 17.888 36.9726 18.0054 36.974 18.1532H37.785Z" fill="white"/>
<path d="M40.7486 19.354H40.2063V18.3079C40.2063 18.0864 40.1946 17.9433 40.1714 17.8784C40.1481 17.8135 40.1107 17.7627 40.0585 17.7268C40.0063 17.6908 39.9436 17.6728 39.8702 17.6728C39.7764 17.6728 39.6922 17.6986 39.6174 17.75C39.5427 17.8015 39.4915 17.8696 39.464 17.9546C39.4365 18.0395 39.4224 18.1964 39.4224 18.4256V19.354H38.8801V17.304H39.384V17.6051C39.5628 17.3735 39.7881 17.2578 40.0596 17.2578C40.1791 17.2578 40.2884 17.2793 40.3875 17.3223C40.4866 17.3657 40.5613 17.4207 40.6125 17.4874C40.6632 17.5544 40.6988 17.6305 40.7186 17.7151C40.7387 17.8001 40.7486 17.9218 40.7486 18.0801V19.354Z" fill="white"/>
<path d="M42.3573 17.304V17.7363H41.9867V18.5624C41.9867 18.7295 41.9902 18.8272 41.9973 18.8547L42.0456 18.9235C42.0706 18.9415 42.101 18.9503 42.1373 18.9503C42.1873 18.9503 42.26 18.933 42.3552 18.8984L42.4014 19.3191C42.2755 19.373 42.1327 19.4002 41.973 19.4002C41.8753 19.4002 41.7871 19.3836 41.7089 19.3512C41.6302 19.318 41.5728 19.2757 41.5361 19.2235C41.4994 19.1713 41.4737 19.1008 41.4596 19.0123C41.4479 18.9492 41.4423 18.8219 41.4423 18.6301V17.7363H41.1934V17.304H41.4423V16.8967L41.9867 16.5801V17.304H42.3573Z" fill="white"/>
<path d="M42.6611 18.7691L43.2056 18.6862C43.2285 18.7916 43.2754 18.8717 43.3462 18.9263C43.4171 18.981 43.5162 19.0085 43.6435 19.0085C43.7838 19.0085 43.8892 18.9827 43.9601 18.9313C44.0077 18.8953 44.0317 18.847 44.0317 18.7863C44.0317 18.7451 44.0187 18.7112 43.9929 18.6841C43.9661 18.6583 43.9051 18.6347 43.8117 18.6129C43.3737 18.5162 43.0966 18.4281 42.9795 18.3484C42.8173 18.2377 42.7362 18.084 42.7362 17.8869C42.7362 17.7095 42.8064 17.56 42.9467 17.439C43.0867 17.3181 43.3043 17.2578 43.5994 17.2578C43.8797 17.2578 44.0881 17.3033 44.2246 17.3946C44.3607 17.4863 44.4548 17.6213 44.5063 17.8001L43.9947 17.8946C43.9728 17.8149 43.9316 17.7539 43.8702 17.7113C43.8092 17.6689 43.7221 17.6478 43.6086 17.6478C43.4658 17.6478 43.3639 17.6675 43.3018 17.7074C43.2606 17.7356 43.2401 17.7723 43.2401 17.8174C43.2401 17.8562 43.2581 17.889 43.2944 17.9158C43.3431 17.9517 43.512 18.0029 43.8007 18.0684C44.0895 18.134 44.2912 18.2144 44.4062 18.3096C44.519 18.4062 44.5758 18.5406 44.5758 18.713C44.5758 18.9009 44.4975 19.0624 44.3406 19.1975C44.1833 19.3325 43.9509 19.4002 43.6435 19.4002C43.3642 19.4002 43.1435 19.3435 42.9806 19.2303C42.8177 19.1171 42.7112 18.9633 42.6611 18.7691Z" fill="white"/>
<path d="M48.795 19.3538H48.1733L47.9265 18.711H46.7954L46.5616 19.3538H45.9558L47.0577 16.5242H47.6621L48.795 19.3538ZM47.7432 18.2343L47.3532 17.1842L46.971 18.2343H47.7432Z" fill="white"/>
<path d="M49.732 19.354H49.1897V17.304H49.6936V17.5956C49.7796 17.4577 49.8572 17.3671 49.9259 17.3234C49.9947 17.2797 50.073 17.2578 50.1604 17.2578C50.2842 17.2578 50.403 17.292 50.5176 17.3601L50.3498 17.8329C50.2581 17.774 50.1735 17.7444 50.0948 17.7444C50.019 17.7444 49.9545 17.7652 49.902 17.8072C49.8491 17.8488 49.8075 17.9246 49.7771 18.0339C49.7472 18.1432 49.732 18.3724 49.732 18.7208V19.354Z" fill="white"/>
<path d="M52.057 18.7015L52.5975 18.7921C52.528 18.9903 52.4184 19.1412 52.2685 19.2448C52.1183 19.3485 51.9307 19.4003 51.7058 19.4003C51.3493 19.4003 51.0855 19.2836 50.9142 19.0509C50.7791 18.8644 50.7114 18.6288 50.7114 18.3443C50.7114 18.0047 50.8003 17.7385 50.978 17.546C51.1553 17.3538 51.3803 17.2576 51.6515 17.2576C51.9565 17.2576 52.1973 17.3584 52.3736 17.5597C52.5499 17.7611 52.6342 18.0696 52.6264 18.4853H51.2675C51.2714 18.6461 51.3151 18.7713 51.3986 18.8608C51.4822 18.9501 51.5866 18.9948 51.7114 18.9948C51.7964 18.9948 51.868 18.9716 51.9258 18.9254C51.9836 18.8792 52.0273 18.8044 52.057 18.7015ZM52.088 18.1532C52.0841 17.9963 52.0436 17.8767 51.9663 17.7953C51.8891 17.7135 51.795 17.6726 51.6843 17.6726C51.5661 17.6726 51.4681 17.716 51.3909 17.802C51.3137 17.888 51.2759 18.0054 51.277 18.1532H52.088Z" fill="white"/>
<path d="M53.592 17.9295L53.1001 17.8407C53.1551 17.6425 53.2507 17.4958 53.3857 17.4006C53.5208 17.3054 53.7214 17.2578 53.988 17.2578C54.2295 17.2578 54.4097 17.2864 54.5285 17.3438C54.6466 17.401 54.7298 17.4736 54.7781 17.5618C54.8265 17.6499 54.8504 17.8118 54.8504 18.0473L54.8448 18.6802C54.8448 18.8607 54.8536 18.9933 54.8709 19.079C54.8882 19.1643 54.9206 19.2564 54.9686 19.354H54.4319C54.4174 19.3181 54.4002 19.2645 54.3797 19.1939C54.3705 19.1619 54.3642 19.1404 54.3603 19.1301C54.2676 19.22 54.1685 19.2877 54.0631 19.3329C53.9576 19.378 53.8452 19.4002 53.7253 19.4002C53.5141 19.4002 53.348 19.3431 53.2263 19.2285C53.1047 19.1139 53.0437 18.9693 53.0437 18.7941C53.0437 18.6784 53.0716 18.5751 53.1269 18.4845C53.1823 18.3939 53.2595 18.3244 53.3596 18.2758C53.4591 18.2278 53.6029 18.1855 53.7909 18.1495C54.0444 18.1019 54.22 18.0575 54.3177 18.0163V17.9623C54.3177 17.8579 54.2923 17.7839 54.2404 17.7395C54.1889 17.695 54.092 17.6728 53.9492 17.6728C53.8529 17.6728 53.7775 17.6919 53.7232 17.7299C53.6692 17.7677 53.6255 17.8343 53.592 17.9295ZM54.3177 18.3696C54.2482 18.3928 54.1385 18.4203 53.988 18.4528C53.8374 18.4849 53.7387 18.5162 53.6925 18.5473C53.6216 18.5973 53.5864 18.6612 53.5864 18.7384C53.5864 18.8142 53.6146 18.8798 53.6713 18.9351C53.7277 18.9905 53.7997 19.018 53.8875 19.018C53.9851 19.018 54.0786 18.9859 54.1671 18.9217C54.233 18.8727 54.276 18.8128 54.2968 18.7423C54.3106 18.6957 54.3177 18.6076 54.3177 18.4778V18.3696Z" fill="white"/>
<path d="M12.9425 5.4038H9.23416C9.23416 4.79521 9.16258 4.3869 9.02013 4.17886C8.7994 3.87139 8.19046 3.71731 7.19365 3.71731C6.22541 3.71731 5.58367 3.80581 5.27056 3.98317C4.95745 4.16123 4.80055 4.54804 4.80055 5.14358C4.80055 5.68271 4.93947 6.03813 5.21767 6.20809C5.41689 6.32903 5.68029 6.3999 6.00821 6.42106L6.75608 6.47395C8.359 6.58008 9.36004 6.65519 9.75918 6.69785C11.0268 6.82549 11.9457 7.16258 12.5158 7.70876C12.9643 8.13506 13.232 8.69217 13.3173 9.37974C13.3674 9.79123 13.392 10.257 13.392 10.7743C13.392 11.9668 13.2782 12.8398 13.0507 13.3931C12.6378 14.4085 11.7101 15.0499 10.2669 15.3193C9.66222 15.4332 8.73734 15.49 7.49301 15.49C5.41619 15.49 3.96911 15.3666 3.15178 15.118C2.14898 14.8137 1.4875 14.197 1.16769 13.2686C0.989273 12.7517 0.901123 11.8906 0.901123 10.6854H4.60944C4.60944 10.8198 4.60979 10.9227 4.60979 10.9936C4.60979 11.6367 4.79455 12.05 5.16373 12.2344C5.41936 12.3613 5.72789 12.428 6.09072 12.4361H7.45423C8.14991 12.4361 8.59384 12.4005 8.7853 12.3289C9.12626 12.1949 9.35017 11.9791 9.45701 11.6805C9.51377 11.4964 9.54198 11.2588 9.54198 10.9675C9.54198 10.3155 9.30398 9.91887 8.82867 9.77642C8.65061 9.72035 7.82411 9.64172 6.34812 9.54264C5.16267 9.45802 4.33934 9.37657 3.87849 9.29758C2.66448 9.07051 1.85526 8.60331 1.45153 7.89423C1.09646 7.29198 0.919106 6.38051 0.919106 5.16086C0.919106 4.23246 1.01501 3.48776 1.20683 2.92783C1.39864 2.36755 1.70788 1.94231 2.13452 1.65141C2.75969 1.20467 3.55974 0.942684 4.53327 0.864407C5.34355 0.793534 6.24233 0.757568 7.23103 0.757568C8.78741 0.757568 9.8967 0.847129 10.5578 1.02449C12.1717 1.45819 12.9784 2.67255 12.9784 4.66827C12.9784 4.83188 12.9665 5.07659 12.9425 5.4038Z" fill="white"/>
<path d="M29.2498 15.4899V0.679199H35.0596H35.9714H36.6763C37.6949 0.679199 38.4721 0.762061 39.0062 0.928489C40.2277 1.31106 41.0471 2.0949 41.4671 3.27893C41.6835 3.90057 41.7922 4.83637 41.7922 6.08599C41.7922 7.58843 41.6719 8.66775 41.4339 9.32535C40.9575 10.625 39.9773 11.374 38.4967 11.5679C38.3225 11.5972 37.5817 11.6229 36.2739 11.6441L35.6125 11.6659H33.2359V15.4899H29.2498ZM33.2359 8.23017H35.7207C36.5088 8.20196 36.988 8.14131 37.1604 8.04646C37.3959 7.91706 37.5542 7.65754 37.6329 7.26862C37.6833 7.00981 37.7083 6.62477 37.7083 6.1135C37.7083 5.48692 37.6582 5.02255 37.5578 4.71931C37.4146 4.29443 37.0712 4.03597 36.5275 3.94182C36.4196 3.92772 36.1622 3.91996 35.7542 3.91996H33.2359V8.23017Z" fill="white"/>
<path d="M50.3008 12.9303H44.9713L44.2551 15.4899H40.1311L44.5813 0.679199H50.5942L55.0987 15.4899H51.0614L50.3008 12.9303ZM49.5093 10.045L47.6415 3.62483L45.8292 10.045H49.5093Z" fill="white"/>
<path d="M23.7482 2.76279C25.3921 2.76279 26.8596 3.52018 27.824 4.70634L28.6832 2.86399C27.3395 1.59392 25.5105 0.810791 23.4933 0.810791C20.3523 0.810791 17.6655 2.70779 16.5629 5.3932H14.8873L13.8979 7.5141H16.0534C16.0372 7.71086 16.0266 7.90761 16.0266 8.10859C16.0266 8.35153 16.0393 8.59201 16.0633 8.82931H14.9801L13.991 10.9509H16.6144C17.7484 13.5683 20.4017 15.4057 23.4933 15.4057C25.0514 15.4057 26.4971 14.9388 27.6942 14.1413V11.5412C26.7302 12.6388 25.3201 13.3324 23.7482 13.3324C21.9108 13.3324 20.2945 12.3849 19.3534 10.9509H24.8462L25.8356 8.82931H18.5452C18.5075 8.57402 18.4874 8.3131 18.4874 8.04724C18.4874 7.86741 18.4966 7.6897 18.5142 7.5141H26.4488L27.4379 5.3932H19.2C20.1111 3.82095 21.8065 2.76279 23.7482 2.76279Z" fill="#FFBE00"/>
<path d="M23.7482 2.8265C25.3148 2.8265 26.7823 3.52677 27.7745 4.74677L27.8387 4.82575L27.8821 4.73372L28.741 2.89138L28.76 2.84942L28.7273 2.81768C27.3147 1.48273 25.4558 0.747559 23.4932 0.747559C21.9605 0.747559 20.4859 1.19536 19.2282 2.04266C18.0001 2.86987 17.0579 4.02041 16.5043 5.36911L16.5628 5.32962H14.8873H14.8464L14.8295 5.36629L13.8404 7.48754L13.7981 7.57816H13.8979H16.0533L15.9899 7.50905C15.9719 7.72943 15.9631 7.92512 15.9631 8.10883C15.9631 8.34683 15.9754 8.59189 15.9997 8.83589L16.0632 8.76608H14.98H14.9398L14.9229 8.80275L13.9331 10.924L13.8912 11.0146H13.991H16.6143L16.5558 10.9762C17.7384 13.7057 20.4616 15.4694 23.4932 15.4694C25.0129 15.4694 26.4773 15.029 27.7294 14.1947L27.7572 14.176V14.1415V11.5414V11.3725L27.6462 11.4994C26.6585 12.6239 25.2379 13.2684 23.7482 13.2684C21.9957 13.2684 20.3727 12.3887 19.4062 10.9159L19.3533 11.0146H24.8462H24.8871L24.904 10.9783L25.8934 8.85634L25.9357 8.76608H25.8356H18.5452L18.6083 8.82038C18.5706 8.56333 18.5512 8.30381 18.5512 8.04747C18.5512 7.87294 18.56 7.69593 18.5776 7.52069L18.5141 7.57816H26.4487H26.4896L26.5066 7.54149L27.4956 5.42024L27.5383 5.32962H27.4378H19.2L19.255 5.42517C20.1837 3.82225 21.9058 2.8265 23.7482 2.8265ZM19.2 5.45691H27.4378L27.38 5.36629L26.3913 7.48754L26.4487 7.45087H18.5141H18.4567L18.4503 7.50834C18.4327 7.68747 18.4239 7.86906 18.4239 8.04747C18.4239 8.30981 18.4436 8.57638 18.4821 8.83906L18.4905 8.89336H18.5452H25.8356L25.7781 8.80275L24.789 10.924L24.8462 10.8873H19.3533H19.2352L19.3001 10.9854C20.2898 12.4952 21.9531 13.3954 23.7482 13.3954C25.2742 13.3954 26.7301 12.7353 27.7421 11.5834L27.6303 11.5414V14.1415L27.6585 14.089C26.4276 14.9088 24.9876 15.3421 23.4932 15.3421C20.512 15.3421 17.835 13.6084 16.6729 10.9254L16.6559 10.8873H16.6143H13.991L14.0491 10.9783L15.0378 8.85634L14.98 8.89336H16.0632H16.1334L16.1267 8.8232C16.1027 8.58343 16.09 8.3426 16.09 8.10883C16.09 7.929 16.0988 7.73613 16.1168 7.51963L16.1224 7.45087H16.0533H13.8979L13.9554 7.54149L14.9448 5.42024L14.8873 5.45691H16.5628H16.6055L16.6214 5.41742C17.1661 4.09199 18.0921 2.96154 19.2994 2.14809C20.5356 1.3156 21.9862 0.8752 23.4932 0.8752C25.4234 0.8752 27.2506 1.59768 28.6395 2.91042L28.6254 2.83708L27.7668 4.67977L27.8736 4.66637C26.8563 3.4164 25.3532 2.69921 23.7482 2.69921C21.86 2.69921 20.0966 3.71929 19.1446 5.36135L19.0892 5.45691H19.2Z" fill="white"/>
</g>
<defs>
<clipPath id="clip0_197_7142">
<rect width="55.5561" height="24" fill="white" transform="translate(0.221924)"/>
</clipPath>
</defs>
</svg>
