<svg width="69" height="68" viewBox="0 0 69 68" fill="none" xmlns="http://www.w3.org/2000/svg">
<g clip-path="url(#clip0_2004_206)">
<path d="M13.1457 8.05564C12.6996 5.05837 11.1789 2.31202 8.96123 0.235107C8.61929 -0.0650466 8.09631 -0.0650464 7.77448 0.255118L0.251666 7.73894C-0.0701659 8.05911 -0.0902791 8.59938 0.231553 8.91955C2.32353 11.1302 5.0901 12.6456 8.1094 13.0883C10.1014 13.3805 12.0809 13.7963 14.0438 14.3359C14.2624 14.3903 14.4605 14.1932 14.4058 13.9757C13.8623 12.019 13.4416 10.0436 13.1457 8.05564Z" fill="white"/>
<path d="M9.50397 25.7898C9.396 25.7641 9.29893 25.8605 9.3233 25.9683C10.6509 31.9313 10.4899 38.0544 8.86066 43.8774C8.71986 44.3377 9.20261 44.7379 9.64513 44.5378C12.8634 42.977 16.2226 41.7163 19.6822 40.7958C20.2857 40.6358 20.8891 40.4757 21.5127 40.3356C21.8747 40.2556 22.1362 39.9554 22.1764 39.5952C22.3574 38.0724 22.4646 36.5496 22.499 35.0293C22.5469 32.9111 21.4699 30.9198 19.6344 29.8452C16.4945 28.0069 13.0861 26.64 9.50397 25.7898Z" fill="white"/>
<path d="M29.9906 19.5283C31.0702 21.3546 33.0721 22.4251 35.2013 22.3787C36.7296 22.3455 38.262 22.2413 39.7967 22.0663C40.1588 22.0262 40.4605 21.7661 40.541 21.4059C40.6214 21.1058 40.6969 20.8006 40.7723 20.4954C40.8477 20.1903 40.9231 19.8851 41.0036 19.585C41.9289 16.1432 43.1961 12.8015 44.765 9.5999C44.9863 9.17968 44.584 8.69944 44.1012 8.8195C38.2479 10.4403 32.0527 10.6004 26.0988 9.27973C25.9905 9.2555 25.8936 9.35205 25.9194 9.45943C26.7732 13.0196 28.1454 16.4072 29.9906 19.5283Z" fill="white"/>
<path d="M68.0978 60.2658L60.575 67.7496C60.2532 68.0698 59.7302 68.0698 59.3882 67.7696C45.2478 54.5429 23.0816 54.5429 8.94113 67.7696C8.61929 68.0898 8.0762 68.0698 7.75437 67.7496L0.251672 60.2858C-0.0902742 59.9456 -0.0701597 59.4054 0.251672 59.0852C12.6623 47.2992 30.5642 42.8169 47.219 47.3392C47.4376 47.3936 47.6357 47.1965 47.581 46.979C43.015 30.3905 47.5408 12.6014 59.3882 0.25513C59.7302 -0.0850435 60.2532 -0.0850435 60.5951 0.25513L68.0978 7.71895C68.4196 8.03911 68.4196 8.55938 68.1179 8.89955C54.8222 22.9667 54.8222 45.018 68.1179 59.0852C68.4397 59.4054 68.4196 59.9456 68.0978 60.2658Z" fill="white"/>
<path d="M105.221 54.3962H99.2402V16.0692H105.221V34.3163H105.461L121.561 16.0692H128.663L113.391 33.0414L129.944 54.3962H122.522L109.172 37.1318L105.221 41.6205V54.3962Z" fill="white"/>
<path d="M141.025 50.3324C143.054 50.3324 144.754 49.7215 146.125 48.4997C147.513 47.2602 148.207 45.7374 148.207 43.9313V41.7268L141.292 42.1517C139.566 42.2757 138.231 42.7007 137.287 43.4266C136.362 44.1349 135.899 45.0911 135.899 46.2952C135.899 47.517 136.362 48.4997 137.287 49.2434C138.231 49.9694 139.477 50.3324 141.025 50.3324ZM139.423 54.8743C136.664 54.8743 134.413 54.0952 132.668 52.5369C130.942 50.9787 130.079 48.9513 130.079 46.4546C130.079 44.011 130.986 42.0721 132.802 40.6378C134.617 39.1858 137.189 38.3713 140.518 38.1942L148.207 37.7427V35.5913C148.207 34.033 147.709 32.8201 146.712 31.9524C145.715 31.0671 144.336 30.6244 142.574 30.6244C140.936 30.6244 139.601 30.9874 138.569 31.7134C137.554 32.4394 136.914 33.4398 136.647 34.7148H131.2C131.36 32.1295 132.482 30.0224 134.564 28.3933C136.647 26.7643 139.388 25.9497 142.787 25.9497C146.187 25.9497 148.893 26.782 150.904 28.4464C152.933 30.1109 153.948 32.342 153.948 35.1397V54.3962H148.421V49.8012H148.287C147.486 51.3417 146.267 52.5724 144.63 53.4931C143.01 54.4139 141.274 54.8743 139.423 54.8743Z" fill="white"/>
<path d="M161.237 64.808C160.152 64.808 159.369 64.7637 158.888 64.6752V60.027C159.173 60.0979 159.796 60.1333 160.757 60.1333C162.11 60.1333 163.169 59.8234 163.934 59.2037C164.699 58.6016 165.305 57.5835 165.75 56.1492C165.75 56.1315 165.839 55.8393 166.017 55.2727L166.257 54.4228L156.111 26.4544H162.359L169.487 49.1903H169.568L176.696 26.4544H182.784L172.237 55.857C171.045 59.2391 169.648 61.5764 168.046 62.869C166.444 64.1617 164.174 64.808 161.237 64.808Z" fill="white"/>
<path d="M185.081 54.3962V26.4544H190.581V31.2088H190.714C191.177 29.5797 192.005 28.3048 193.197 27.384C194.39 26.4633 195.814 26.0029 197.469 26.0029C198.021 26.0029 198.679 26.0737 199.445 26.2154V31.554C198.929 31.3416 198.065 31.2353 196.855 31.2353C195.004 31.2353 193.535 31.8108 192.45 32.9618C191.382 34.1127 190.848 35.6798 190.848 37.663V54.3962H185.081Z" fill="white"/>
<path d="M202.116 54.3962V26.4544H207.883V54.3962H202.116ZM207.375 21.4079C206.717 22.0453 205.925 22.3641 204.999 22.3641C204.074 22.3641 203.282 22.0453 202.623 21.4079C201.982 20.7704 201.662 20.0002 201.662 19.0971C201.662 18.1763 201.982 17.3972 202.623 16.7598C203.282 16.1223 204.074 15.8036 204.999 15.8036C205.943 15.8036 206.735 16.1223 207.375 16.7598C208.034 17.3972 208.363 18.1763 208.363 19.0971C208.363 20.0002 208.034 20.7704 207.375 21.4079Z" fill="white"/>
<path d="M212.182 34.3695C212.182 31.8728 213.197 29.8453 215.226 28.2871C217.255 26.7289 219.907 25.9497 223.182 25.9497C226.297 25.9497 228.851 26.7377 230.845 28.3136C232.856 29.8719 233.906 31.8993 233.995 34.396H228.576C228.433 33.1211 227.873 32.1207 226.894 31.3947C225.915 30.6687 224.624 30.3057 223.022 30.3057C221.456 30.3057 220.192 30.651 219.231 31.3416C218.288 32.0321 217.816 32.9263 217.816 34.0242C217.816 35.7241 219.249 36.9281 222.114 37.6364L226.84 38.7254C229.67 39.3983 231.673 40.3191 232.847 41.4877C234.04 42.6387 234.636 44.25 234.636 46.3218C234.636 48.8716 233.551 50.9433 231.379 52.5369C229.225 54.1306 226.422 54.9274 222.969 54.9274C219.676 54.9274 216.988 54.1483 214.906 52.5901C212.841 51.0318 211.693 48.9601 211.462 46.3749H217.175C217.407 47.7206 218.038 48.7565 219.071 49.4825C220.103 50.1908 221.491 50.5449 223.236 50.5449C224.962 50.5449 226.324 50.2173 227.321 49.5622C228.335 48.8893 228.843 47.9862 228.843 46.853C228.843 45.9499 228.54 45.2328 227.935 44.7016C227.33 44.1703 226.297 43.7188 224.838 43.347L219.818 42.1252C214.728 40.9034 212.182 38.3182 212.182 34.3695Z" fill="white"/>
<path d="M259.788 51.0496C257.367 53.6348 254.137 54.9274 250.096 54.9274C246.056 54.9274 242.825 53.6348 240.404 51.0496C237.984 48.4466 236.773 44.9052 236.773 40.4253C236.773 35.9631 237.984 32.4394 240.404 29.8542C242.825 27.2512 246.056 25.9497 250.096 25.9497C254.137 25.9497 257.367 27.2512 259.788 29.8542C262.209 32.4394 263.419 35.9631 263.419 40.4253C263.419 44.9052 262.209 48.4466 259.788 51.0496ZM250.096 50.1996C252.392 50.1996 254.208 49.3408 255.543 47.6232C256.878 45.9056 257.545 43.5063 257.545 40.4253C257.545 37.362 256.869 34.9715 255.516 33.2539C254.181 31.5363 252.374 30.6775 250.096 30.6775C247.818 30.6775 246.002 31.5363 244.649 33.2539C243.315 34.9715 242.647 37.362 242.647 40.4253C242.647 43.5063 243.315 45.9056 244.649 47.6232C246.002 49.3408 247.818 50.1996 250.096 50.1996Z" fill="white"/>
<path d="M266.784 54.3962V26.4544H272.284V31.1291H272.417C273.201 29.5 274.34 28.234 275.835 27.3309C277.33 26.4278 279.137 25.9763 281.255 25.9763C284.334 25.9763 286.728 26.8971 288.437 28.7386C290.146 30.5624 291 33.0857 291 36.3084V54.3962H285.206V37.4239C285.206 35.2991 284.699 33.6877 283.684 32.5899C282.688 31.4744 281.201 30.9166 279.226 30.9166C277.197 30.9166 275.577 31.5717 274.367 32.8821C273.156 34.1924 272.551 35.9365 272.551 38.1145V54.3962H266.784Z" fill="white"/>
</g>
<defs>
<clipPath id="clip0_2004_206">
<rect width="69" height="68" fill="white"/>
</clipPath>
</defs>
</svg>
