<svg width="33" height="20" viewBox="0 0 33 20" fill="none" xmlns="http://www.w3.org/2000/svg">
<rect x="0.150635" y="-0.000732422" width="32" height="20" rx="10" fill="url(#paint0_radial_197_7397)" fill-opacity="0.8"/>
<path opacity="0.6" d="M7.0534 11.4044C7.07793 11.3022 7.22334 11.3022 7.24787 11.4044L7.51322 12.51C7.59803 12.8634 7.86784 13.1429 8.21797 13.2402L8.80377 13.4029C8.90142 13.43 8.90142 13.5685 8.80377 13.5956L8.21797 13.7583C7.86784 13.8556 7.59803 14.1351 7.51322 14.4885L7.24787 15.5941C7.22334 15.6963 7.07793 15.6963 7.0534 15.5941L6.78805 14.4885C6.70324 14.1351 6.43343 13.8556 6.0833 13.7583L5.4975 13.5956C5.39985 13.5685 5.39985 13.43 5.4975 13.4029L6.0833 13.2402C6.43343 13.1429 6.70324 12.8634 6.78805 12.51L7.0534 11.4044Z" fill="white" fill-opacity="0.42"/>
<path opacity="0.6" d="M3.55307 6.43287C3.57649 6.32881 3.72478 6.32881 3.7482 6.43287L3.89681 7.09337C3.97635 7.44689 4.24091 7.72972 4.58833 7.83266L4.82704 7.90339C4.9225 7.93167 4.9225 8.06686 4.82704 8.09515L4.58833 8.16588C4.24091 8.26882 3.97635 8.55165 3.89681 8.90516L3.7482 9.56566C3.72478 9.66973 3.57649 9.66973 3.55307 9.56566L3.40446 8.90516C3.32492 8.55165 3.06036 8.26882 2.71294 8.16588L2.47423 8.09515C2.37877 8.06686 2.37877 7.93167 2.47423 7.90339L2.71294 7.83266C3.06036 7.72972 3.32492 7.44689 3.40446 7.09337L3.55307 6.43287Z" fill="white" fill-opacity="0.42"/>
<path d="M10.5531 6.43287C10.5765 6.32881 10.7248 6.32881 10.7482 6.43287L10.8968 7.09337C10.9763 7.44689 11.2409 7.72972 11.5883 7.83266L11.827 7.90339C11.9225 7.93167 11.9225 8.06686 11.827 8.09515L11.5883 8.16588C11.2409 8.26882 10.9763 8.55165 10.8968 8.90516L10.7482 9.56566C10.7248 9.66973 10.5765 9.66973 10.5531 9.56566L10.4045 8.90516C10.3249 8.55165 10.0604 8.26882 9.71294 8.16588L9.47423 8.09515C9.37877 8.06686 9.37877 7.93167 9.47423 7.90339L9.71294 7.83266C10.0604 7.72972 10.3249 7.44689 10.4045 7.09337L10.5531 6.43287Z" fill="white" fill-opacity="0.42"/>
<defs>
<radialGradient id="paint0_radial_197_7397" cx="0" cy="0" r="1" gradientUnits="userSpaceOnUse" gradientTransform="translate(16.1506 30.4993) rotate(-90) scale(30.5 48.8)">
<stop stop-color="#3399FF"/>
<stop offset="0.15" stop-color="#3D6DFA"/>
<stop offset="1" stop-color="#444BF6"/>
</radialGradient>
</defs>
</svg>
