<svg width="246" height="161" viewBox="0 0 246 161" fill="none" xmlns="http://www.w3.org/2000/svg">
<g clip-path="url(#clip0_197_7625)">
<path d="M221 126.603C234.807 126.603 246 115.41 246 101.603C246 87.7955 234.807 76.6026 221 76.6026C207.193 76.6026 196 87.7955 196 101.603C196 115.41 207.193 126.603 221 126.603Z" fill="#F7931A"/>
<path d="M232.232 98.5089C232.723 95.2339 230.228 93.4729 226.818 92.2979L227.925 87.8604L225.225 87.1886L224.146 91.5089C223.437 91.3308 222.709 91.1651 221.982 90.9995L223.068 86.6511L220.368 85.9776L219.262 90.4136C218.675 90.2792 218.096 90.1479 217.537 90.0073L217.54 89.9933L213.815 89.0636L213.096 91.9479C213.096 91.9479 215.101 92.4073 215.059 92.4354C216.153 92.7089 216.35 93.4323 216.317 94.0073L215.057 99.062C215.132 99.0808 215.229 99.1089 215.339 99.1511L215.053 99.0808L213.287 106.162C213.153 106.493 212.814 106.992 212.048 106.803C212.076 106.842 210.086 106.314 210.086 106.314L208.745 109.404L212.261 110.281C212.914 110.445 213.554 110.617 214.184 110.778L213.067 115.265L215.765 115.937L216.871 111.5C217.609 111.698 218.325 111.882 219.025 112.057L217.921 116.476L220.621 117.148L221.739 112.67C226.345 113.542 229.807 113.19 231.265 109.025C232.44 105.671 231.207 103.735 228.784 102.475C230.55 102.068 231.878 100.907 232.232 98.5089ZM226.061 107.162C225.228 110.517 219.579 108.703 217.748 108.248L219.232 102.303C221.064 102.76 226.934 103.665 226.061 107.162ZM226.896 98.4604C226.136 101.512 221.436 99.9604 219.912 99.5808L221.256 94.1901C222.779 94.5698 227.69 95.2776 226.896 98.4604Z" fill="white"/>
<g clip-path="url(#clip1_197_7625)">
<path d="M191.391 73.7934C209.987 70.3312 222.255 52.4498 218.793 33.8542C215.331 15.2586 197.449 2.99051 178.854 6.4527C160.258 9.9149 147.99 27.7963 151.452 46.3919C154.914 64.9875 172.796 77.2556 191.391 73.7934Z" fill="#6CDE07"/>
<path fill-rule="evenodd" clip-rule="evenodd" d="M197.628 43.5245C198.484 48.1206 195.322 51.8661 189.899 53.3513L190.669 57.4877L186.896 58.1903L186.118 54.0127C182.314 54.2862 178.508 53.5143 175.111 51.7803L177.178 47.4615C180.01 48.9235 182.584 49.7413 185.482 49.6347L183.957 41.444C177.329 41.0349 173.952 39.2859 173.073 34.5646C172.233 30.0526 175.343 26.2743 180.688 24.8463L180.236 22.423L184.01 21.7205L184.477 24.2278C187.487 24.0063 190.503 24.5779 193.223 25.8856L191.524 30.2653C189.359 29.2418 187.244 28.727 185.128 28.6898L186.606 36.6284C193.495 36.9888 196.788 39.0125 197.628 43.5245ZM183.014 36.3886L181.645 29.0348C178.953 29.7525 177.795 31.4818 178.137 33.3202C178.463 35.0728 179.497 36.0499 183.016 36.39L183.014 36.3886ZM192.564 44.769C192.215 42.8912 191.093 41.9325 187.532 41.6L188.94 49.1648C191.633 48.445 192.938 46.7755 192.565 44.7708L192.564 44.769Z" fill="white"/>
</g>
<path d="M143.778 153.579C164.642 157.678 184.879 144.086 188.977 123.222C193.075 102.358 179.484 82.1215 158.619 78.0232C137.755 73.9249 117.519 87.5165 113.421 108.381C109.322 129.245 122.914 149.481 143.778 153.579Z" fill="#26A17B"/>
<path fill-rule="evenodd" clip-rule="evenodd" d="M155.096 119.958L155.097 119.953C154.834 119.921 153.479 119.738 150.492 119.152C148.108 118.683 146.443 118.283 145.858 118.138L145.857 118.146C136.756 115.939 130.218 112.994 130.594 111.082C130.969 109.171 138.135 108.919 147.396 110.311L146.169 116.554C146.761 116.714 148.46 117.154 150.835 117.62C153.685 118.18 155.136 118.342 155.408 118.371L156.634 112.131C165.715 114.339 172.236 117.28 171.861 119.188C171.486 121.1 164.337 121.351 155.096 119.958ZM156.761 111.481L157.859 105.895L170.642 108.406L172.315 99.8871L137.51 93.0504L135.836 101.569L148.619 104.08L147.523 109.664C137.04 108.101 128.823 108.625 128.338 111.09C127.854 113.555 135.263 117.146 145.558 119.666L142.042 137.568L151.281 139.383L154.798 121.476C165.264 123.037 173.462 122.511 173.946 120.048C174.43 117.586 167.04 113.998 156.761 111.481Z" fill="white"/>
<g clip-path="url(#clip2_197_7625)">
<path d="M54.5 150.603C84.5995 150.603 109 126.202 109 96.1026C109 66.0031 84.5995 41.6026 54.5 41.6026C24.4005 41.6026 0 66.0031 0 96.1026C0 126.202 24.4005 150.603 54.5 150.603Z" fill="#627EEA"/>
<path d="M56.1981 55.2276V85.4411L81.7348 96.852L56.1981 55.2276Z" fill="white" fill-opacity="0.602"/>
<path d="M56.1963 55.2276L30.6562 96.852L56.1963 85.4411V55.2276Z" fill="white"/>
<path d="M56.1981 116.43V136.96L81.7518 101.606L56.1981 116.43Z" fill="white" fill-opacity="0.602"/>
<path d="M56.1963 136.96V116.427L30.6562 101.606L56.1963 136.96Z" fill="white"/>
<path d="M56.1981 111.68L81.7348 96.8522L56.1981 85.4481V111.68Z" fill="white" fill-opacity="0.2"/>
<path d="M30.6562 96.8522L56.1963 111.68V85.4481L30.6562 96.8522Z" fill="white" fill-opacity="0.602"/>
</g>
<g clip-path="url(#clip3_197_7625)">
<path d="M122.988 73.8731C131.754 74.9843 139.762 68.7786 140.873 60.0122C141.984 51.2458 135.778 43.2384 127.012 42.1272C118.246 41.0159 110.238 47.2217 109.127 55.9881C108.016 64.7545 114.222 72.7619 122.988 73.8731Z" fill="#64D1FF"/>
<path fill-rule="evenodd" clip-rule="evenodd" d="M119.639 56.5525L121.389 56.7744L122.425 48.6018L126.936 49.1736C127.774 49.2797 128.525 49.4747 129.191 49.7587C129.856 50.0427 130.41 50.4172 130.852 50.8805C131.294 51.3438 131.615 51.9016 131.817 52.5512C132.018 53.2016 132.065 53.9535 131.957 54.8076C131.848 55.6618 131.605 56.386 131.231 56.9806C130.875 57.5548 130.393 58.041 129.823 58.4028C129.238 58.7652 128.586 59.0059 127.905 59.1103C127.15 59.2283 126.381 59.2361 125.623 59.1335L123.133 58.8179L122.805 61.4052L126.774 61.9082L126.559 63.5997L122.591 63.0967L122.133 66.7088L120.162 66.4589L120.62 62.8468L118.87 62.625L119.084 60.9335L120.834 61.1553L121.162 58.568L119.412 58.3462L119.639 56.5525ZM125.899 57.346C127.033 57.4898 127.959 57.334 128.676 56.8785C129.393 56.4221 129.822 55.6479 129.961 54.5546C130.099 53.4623 129.874 52.6265 129.288 52.0492C128.702 51.4709 127.842 51.1098 126.709 50.9662L124.169 50.6443L123.361 57.0242L125.899 57.346Z" fill="white"/>
</g>
</g>
<defs>
<clipPath id="clip0_197_7625">
<rect width="246" height="160.932" fill="white" transform="translate(0 0.0679932)"/>
</clipPath>
<clipPath id="clip1_197_7625">
<rect width="68.4979" height="68.4979" fill="white" transform="translate(145.183 12.7214) rotate(-10.5468)"/>
</clipPath>
<clipPath id="clip2_197_7625">
<rect y="41.6026" width="109" height="109" rx="54.5" fill="white"/>
</clipPath>
<clipPath id="clip3_197_7625">
<rect width="32" height="32" fill="white" transform="translate(111.139 40.1151) rotate(7.22423)"/>
</clipPath>
</defs>
</svg>
