<svg width="209" height="160" viewBox="0 0 209 160" fill="none" xmlns="http://www.w3.org/2000/svg">
<path d="M201.902 79.3405L100.495 71.3042C96.5751 70.9936 93.1451 73.9198 92.8344 77.8401L87.6913 142.74C87.3806 146.66 90.3068 150.09 94.2272 150.401L195.633 158.437C199.554 158.748 202.984 155.822 203.294 151.901L208.438 87.0014C208.748 83.0811 205.822 79.6511 201.902 79.3405Z" fill="#F0F7FB"/>
<path fill-rule="evenodd" clip-rule="evenodd" d="M142.829 114.979L143.599 111.757L142.461 111.64L137.013 111.208L142.707 87.4355C142.724 87.3635 142.768 87.2989 142.827 87.2552C142.887 87.2114 142.961 87.1907 143.035 87.1966L152.221 87.9245C155.27 88.1662 157.324 88.9692 158.323 90.3123C158.792 90.9423 159.071 91.5842 159.176 92.2743C159.286 92.9986 159.221 93.8482 158.977 94.8716L158.959 94.946L158.907 95.6101L159.398 95.9436C159.814 96.2088 160.138 96.5002 160.378 96.8233C160.779 97.3622 161.013 98.0253 161.073 98.7937C161.136 99.5842 161.021 100.51 160.734 101.546C160.403 102.737 159.94 103.761 159.358 104.582C158.823 105.339 158.17 105.951 157.415 106.405C156.695 106.836 155.856 107.14 154.922 107.303C154.016 107.464 152.996 107.501 151.886 107.413L151.171 107.357C150.66 107.316 150.149 107.462 149.733 107.761C149.316 108.068 149.021 108.509 148.901 109.008L148.824 109.297L147.463 114.976L147.406 115.183C147.39 115.249 147.368 115.281 147.339 115.301C147.313 115.32 147.277 115.331 147.242 115.328L142.829 114.979Z" fill="#28356A"/>
<path fill-rule="evenodd" clip-rule="evenodd" d="M159.956 95.102C159.914 95.2757 159.869 95.4527 159.819 95.6347C158.113 101.776 153.798 103.602 148.506 103.183L145.811 102.969C145.163 102.918 144.58 103.346 144.429 103.978L141.766 115.101C141.667 115.516 141.96 115.92 142.383 115.954L147.163 116.333C147.729 116.378 148.242 116.003 148.376 115.451L148.442 115.211L149.796 109.555L149.879 109.245C150.011 108.691 150.526 108.316 151.092 108.361L151.806 108.418C156.437 108.785 160.212 107.187 161.704 101.814C162.327 99.5698 162.249 97.6485 161.184 96.2171C160.861 95.7856 160.448 95.4157 159.956 95.102Z" fill="#298FC2"/>
<path fill-rule="evenodd" clip-rule="evenodd" d="M158.729 94.4951C158.548 94.4262 158.361 94.3621 158.168 94.3023C157.975 94.2435 157.776 94.1893 157.571 94.1393C156.854 93.964 156.062 93.845 155.21 93.7775L148.01 93.2069C147.833 93.1929 147.661 93.2197 147.505 93.2804C147.16 93.4141 146.888 93.7098 146.798 94.091L144.495 103.698L144.429 103.978C144.58 103.346 145.163 102.918 145.811 102.969L148.506 103.183C153.798 103.602 158.113 101.775 159.819 95.6347C159.869 95.4527 159.914 95.2757 159.956 95.102C159.662 94.9146 159.341 94.749 158.993 94.6019C158.907 94.5654 158.818 94.5299 158.729 94.4951Z" fill="#22284F"/>
<path fill-rule="evenodd" clip-rule="evenodd" d="M146.798 94.091C146.888 93.7099 147.16 93.4142 147.505 93.2815C147.662 93.2207 147.833 93.1929 148.01 93.2069L155.21 93.7775C156.062 93.845 156.854 93.9652 157.572 94.1405C157.776 94.1902 157.975 94.2447 158.168 94.3035C158.361 94.363 158.548 94.4265 158.729 94.4951C158.818 94.5299 158.906 94.5665 158.993 94.6019C159.341 94.749 159.663 94.916 159.957 95.1023C160.5 92.826 160.261 91.2279 159.131 89.7084C157.885 88.0352 155.465 87.1697 152.301 86.9189L143.116 86.191C142.47 86.1398 141.881 86.5673 141.73 87.2009L135.977 111.218C135.863 111.693 136.199 112.157 136.683 112.195L142.354 112.644L146.798 94.091Z" fill="#28356A"/>
<path fill-rule="evenodd" clip-rule="evenodd" d="M115.24 119.455L108.543 118.924C108.085 118.888 107.669 119.191 107.561 119.639L103.488 136.647C103.407 136.982 103.645 137.309 103.989 137.337L107.186 137.59C107.644 137.626 108.061 137.324 108.168 136.874L109.267 132.287C109.373 131.838 109.79 131.535 110.248 131.571L112.368 131.739C116.779 132.089 119.495 130.15 120.496 125.96C120.943 124.128 120.772 122.647 119.986 121.557C119.123 120.36 117.482 119.633 115.24 119.455ZM115.514 125.807C114.957 128.187 113.121 128.042 111.346 127.901L110.335 127.821L111.401 123.376C111.464 123.108 111.715 122.926 111.99 122.948L112.453 122.985C113.662 123.08 114.803 123.171 115.338 123.909C115.657 124.349 115.716 124.97 115.514 125.807Z" fill="#28356A"/>
<path fill-rule="evenodd" clip-rule="evenodd" d="M134.948 127.138L131.741 126.883C131.468 126.862 131.216 127.043 131.152 127.312L130.939 128.2L130.741 127.857C130.127 126.791 128.605 126.33 127.06 126.208C123.516 125.927 120.276 128.379 119.387 132.108C118.931 133.968 119.224 135.803 120.19 137.144C121.076 138.376 122.436 138.968 124.1 139.1C126.956 139.326 128.685 137.61 128.685 137.61L128.471 138.493C128.39 138.83 128.628 139.157 128.97 139.184L131.859 139.413C132.318 139.45 132.732 139.147 132.841 138.698L135.447 127.827C135.528 127.493 135.291 127.165 134.948 127.138ZM129.982 133.043C129.527 134.856 127.975 135.974 126.12 135.827C125.189 135.753 124.469 135.395 124.035 134.789C123.606 134.188 123.49 133.371 123.711 132.49C124.145 130.691 125.724 129.534 127.551 129.679C128.461 129.751 129.178 130.114 129.62 130.724C130.063 131.341 130.193 132.164 129.982 133.043Z" fill="#28356A"/>
<path fill-rule="evenodd" clip-rule="evenodd" d="M151.76 128.747L148.537 128.491C148.229 128.467 147.929 128.597 147.734 128.84L142.769 135.054L141.385 128.595C141.297 128.19 140.956 127.891 140.544 127.858L137.378 127.607C136.992 127.576 136.695 127.933 136.789 128.306L139.511 139.034L135.799 143.494C135.507 143.845 135.731 144.378 136.184 144.414L139.403 144.669C139.709 144.693 140.007 144.566 140.2 144.329L152.148 129.662C152.435 129.311 152.211 128.782 151.76 128.747Z" fill="#28356A"/>
<path fill-rule="evenodd" clip-rule="evenodd" d="M163.007 123.241L156.309 122.71C155.852 122.674 155.436 122.976 155.328 123.425L151.255 140.432C151.174 140.768 151.412 141.095 151.754 141.122L155.191 141.394C155.51 141.42 155.802 141.208 155.877 140.893L157.033 136.073C157.139 135.623 157.557 135.321 158.014 135.357L160.133 135.525C164.546 135.874 167.26 133.935 168.263 129.746C168.71 127.913 168.537 126.432 167.751 125.342C166.889 124.145 165.249 123.418 163.007 123.241ZM163.282 129.592C162.725 131.973 160.889 131.827 159.113 131.687L158.103 131.607L159.17 127.162C159.234 126.893 159.482 126.712 159.758 126.733L160.221 126.77C161.429 126.866 162.571 126.956 163.106 127.694C163.425 128.135 163.483 128.756 163.282 129.592Z" fill="#298FC2"/>
<path fill-rule="evenodd" clip-rule="evenodd" d="M182.711 130.923L179.506 130.669C179.231 130.647 178.981 130.829 178.918 131.097L178.705 131.986L178.506 131.642C177.891 130.576 176.371 130.116 174.826 129.993C171.282 129.712 168.043 132.165 167.154 135.894C166.699 137.753 166.99 139.589 167.956 140.929C168.844 142.161 170.202 142.753 171.866 142.885C174.721 143.112 176.451 141.396 176.451 141.396L176.237 142.278C176.156 142.615 176.394 142.943 176.738 142.97L179.626 143.199C180.083 143.235 180.499 142.932 180.607 142.483L183.213 131.613C183.293 131.278 183.055 130.95 182.711 130.923ZM177.745 136.828C177.292 138.641 175.738 139.759 173.883 139.612C172.954 139.538 172.232 139.18 171.798 138.574C171.369 137.973 171.255 137.157 171.474 136.275C171.909 134.476 173.487 133.319 175.314 133.464C176.224 133.536 176.94 133.899 177.383 134.509C177.827 135.127 177.957 135.949 177.745 136.828Z" fill="#298FC2"/>
<path fill-rule="evenodd" clip-rule="evenodd" d="M186.669 125.592L182.531 142.911C182.45 143.247 182.688 143.574 183.03 143.601L185.794 143.82C186.253 143.857 186.669 143.554 186.775 143.105L190.851 126.098C190.932 125.763 190.693 125.435 190.352 125.408L187.257 125.162C186.984 125.142 186.733 125.323 186.669 125.592Z" fill="#298FC2"/>
<g clip-path="url(#clip0_197_7670)">
<rect x="11" y="25.4625" width="123" height="51.4102" rx="8" transform="rotate(-9.10428 11 25.4625)" fill="#F0F9F1"/>
<path d="M79.7879 28.6708L86.2074 27.6421L86.6698 51.1986L80.2505 52.2273L79.7879 28.6708ZM71.6948 29.9677L69.4895 43.9339L65.4721 30.9649L60.9825 31.6844L57.4318 45.8258L54.6025 32.7068L48.3799 33.704L54.2381 56.3958L59.3973 55.5691L63.4422 39.975L68.0222 54.1869L73.1025 53.3728L77.7991 28.9895L71.6948 29.9677ZM127.736 34.7211L112.495 37.1635C113.053 40.1442 115.161 41.8261 117.799 41.4032C119.788 41.0845 121.193 39.7687 122.089 37.5449L127.609 39.0597C126.399 42.8264 123.037 45.6938 118.443 46.43C112.182 47.4335 107.351 43.8853 106.266 37.1116C105.073 29.6682 109.111 23.6083 116.003 22.5038C122.068 21.5319 126.544 25.0155 127.567 31.3955C127.737 32.4589 127.789 33.5413 127.736 34.7211ZM121.319 31.2254C120.89 28.5474 119.122 27.0937 116.719 27.4787C114.317 27.8636 112.474 29.9767 112.339 32.6643L121.319 31.2254ZM29.429 43.8624L24.1029 52.5706L35.8036 50.6956L36.5402 46.8733L31.5267 47.6767L34.023 43.6432L34.0178 43.5471L31.4756 40.4382L40.4373 39.0021L36.5531 59.2299L41.3067 58.4681L46.0033 34.0848L24.3308 37.5579L29.427 43.8627L29.429 43.8624ZM97.3823 30.5775C99.6466 30.2146 101.827 31.1134 103.894 32.923L103.763 26.283C101.973 25.4489 99.6786 25.1198 96.7839 25.5837C91.034 26.5051 88.3443 30.3898 89.029 34.6629C89.5039 37.6265 91.4483 39.173 94.3535 39.9091L95.7478 40.2917C98.3354 40.9373 99.0674 41.3451 99.2425 42.4381C99.4177 43.5309 98.4463 44.4642 96.7823 44.7308C94.0368 45.1808 91.5862 44.1295 89.5274 41.9953L89.6605 48.7623C91.7996 49.9102 94.3667 50.2883 97.5901 49.7718C103.054 48.8961 105.907 45.2075 105.206 40.836C104.73 37.8626 103.105 36.164 99.5369 35.2007L98.0119 34.7584C95.9021 34.1977 95.1554 33.8225 95.0008 32.8576C94.8336 31.814 95.6198 30.8599 97.3823 30.5775Z" fill="#00590E"/>
</g>
<rect y="125.313" width="75.307" height="34.3735" rx="8" transform="rotate(-9.41021 0 125.313)" fill="#CCAAC9"/>
<path d="M54.8674 126.203L59.2906 124.707L61.9361 141.723L57.3902 142.43L54.8674 126.203ZM61.5033 125.171L64.0246 141.389L68.5705 140.682L65.9265 123.675L61.5033 125.171ZM50.9262 143.425L55.4721 142.718L53.538 130.278L48.9922 130.985L50.9262 143.425ZM19.2258 137.412C18.6421 137.464 17.2999 137.587 17.1187 136.421C16.8996 135.012 18.8162 134.714 19.5289 134.603C20.7906 134.407 22.4848 134.519 23.7028 134.676C23.7028 134.676 24.3928 134.8 24.9768 134.94L25.0264 134.942L24.4275 131.09L24.3572 131.081C22.9069 130.826 21.238 130.623 18.262 131.086C13.1382 131.882 11.7804 135.077 12.1675 137.567C12.391 139.004 13.5525 142.288 19.4792 141.77C19.9844 141.721 21.3156 141.591 21.504 142.803C21.6589 143.799 20.6722 144.558 18.8519 144.841C16.8583 145.151 14.8546 144.953 13.6066 144.666L14.2245 148.64C16.0475 148.819 18.0666 148.736 20.3877 148.375C25.3959 147.596 27.2119 144.494 26.7868 141.76C26.3048 138.66 23.4881 137.038 19.2258 137.412ZM46.4025 131.205C42.2238 131.989 40.3816 134.162 40.9499 137.817L42.0381 144.816L46.6226 144.104L45.7344 138.391C45.3941 136.202 45.5369 135.217 48.1916 134.718L47.6248 131.072C47.1494 131.06 46.4025 131.205 46.4025 131.205ZM34.101 133.29C34.0426 133.55 33.6233 135.674 32.1836 138.025L30.8017 129.136L26.2516 130.768L28.7554 146.872L33.4457 146.143L32.6715 141.163C34.3392 142.944 35.4779 145.827 35.4779 145.827L41.0928 144.954C40.1836 142.786 37.1109 139.01 37.1109 139.01C38.8683 135.975 39.3844 132.95 39.464 132.447L34.0995 133.281L34.101 133.29ZM51.07 129.44C52.3027 129.248 53.1621 128.114 52.9751 126.911C52.7881 125.708 51.6331 124.878 50.3907 125.071C49.1579 125.262 48.3082 126.395 48.4966 127.607C48.6836 128.81 49.8372 129.631 51.07 129.44Z" fill="#930E86"/>
<defs>
<clipPath id="clip0_197_7670">
<rect x="11" y="25.4625" width="123" height="51.4102" rx="8" transform="rotate(-9.10428 11 25.4625)" fill="white"/>
</clipPath>
</defs>
</svg>
